<svg width="24" height="24" viewBox="0 0 24 24" fill="none" xmlns="http://www.w3.org/2000/svg">
<path d="M6.96063 6C7.66713 6 8.30286 6.06102 8.88581 6.18545C9.46517 6.30869 9.95936 6.51208 10.3768 6.79325C10.7882 7.07442 11.1097 7.44772 11.3412 7.91673C11.5655 8.37976 11.677 8.95884 11.677 9.64322C11.677 10.385 11.5091 11.0048 11.172 11.4989C10.8326 11.9943 10.3324 12.3999 9.66548 12.7133C10.5735 12.9754 11.2464 13.4336 11.6926 14.0845C12.1412 14.7413 12.3607 15.5274 12.3607 16.4487C12.3607 17.1965 12.218 17.839 11.9313 18.3786C11.6551 18.9101 11.2543 19.3674 10.763 19.7114C10.2542 20.0649 9.68576 20.3242 9.08493 20.4771C8.45497 20.6421 7.80625 20.7249 7.15495 20.7236H0V6H6.96063ZM6.53961 11.9488C7.11537 11.9488 7.59276 11.8124 7.9694 11.536C8.34364 11.2632 8.52477 10.8134 8.52477 10.1972C8.52477 9.85499 8.46359 9.57262 8.34364 9.35128C8.22678 9.13833 8.05383 8.96127 7.84346 8.8392C7.62327 8.70894 7.38025 8.62164 7.12736 8.58196C6.85171 8.53068 6.57171 8.50624 6.29132 8.50897H3.25061V11.9488H6.53961ZM6.72074 18.217C7.041 18.217 7.34567 18.1895 7.63235 18.1249C7.92142 18.0627 8.17811 17.9622 8.39642 17.8126C8.61473 17.6691 8.79465 17.474 8.9242 17.2252C9.05494 16.9787 9.11851 16.6569 9.11851 16.2704C9.11851 15.5118 8.90381 14.9722 8.47919 14.6456C8.05337 14.3226 7.48241 14.1622 6.78311 14.1622H3.25061V18.2182L6.72074 18.217ZM16.9944 18.168C17.4346 18.5963 18.0691 18.8117 18.8943 18.8117C19.4857 18.8117 19.9967 18.6621 20.4273 18.3654C20.8519 18.0675 21.111 17.7492 21.2106 17.4202H23.7955C23.3804 18.7028 22.7507 19.6193 21.8895 20.1709C21.039 20.7248 20.0039 21 18.7948 21C17.9527 21 17.1947 20.8648 16.5158 20.5968C15.8641 20.3437 15.2752 19.9526 14.7897 19.4506C14.3122 18.9369 13.943 18.3327 13.7042 17.6738C13.4416 16.9453 13.3116 16.1759 13.3203 15.4018C13.3203 14.6049 13.4535 13.8595 13.715 13.1716C13.9632 12.5066 14.3443 11.8988 14.8353 11.3853C15.3211 10.8827 15.8968 10.4867 16.5673 10.196C17.2724 9.90019 18.0311 9.75274 18.796 9.76286C19.7004 9.76286 20.4909 9.93754 21.1698 10.2893C21.8282 10.6251 22.399 11.1093 22.8371 11.7035C23.2725 12.2934 23.5831 12.9694 23.7763 13.7267C23.9694 14.4829 24.0366 15.2726 23.9814 16.0993H16.2675C16.2687 16.9416 16.5529 17.7397 16.9944 18.168ZM20.3673 12.5674C20.0183 12.1821 19.4281 11.9739 18.706 11.9739C18.237 11.9739 17.8496 12.0517 17.5377 12.212C17.2526 12.3557 16.9996 12.5555 16.794 12.7995C16.6135 13.021 16.4797 13.2765 16.4006 13.5508C16.3314 13.7796 16.2868 14.015 16.2675 14.2532H21.0438C20.9743 13.5066 20.7176 12.955 20.3673 12.5674ZM15.6677 6.98827H21.652V8.44197H15.6677V6.98827Z" fill="#D8D7C9"/>
</svg>
