<svg width="24" height="24" viewBox="0 0 24 24" fill="none" xmlns="http://www.w3.org/2000/svg">
<path fill-rule="evenodd" clip-rule="evenodd" d="M11 4C6.02898 4 2 7.90146 2 12.7152C2 16.5651 4.578 19.8322 8.1549 20.9856C8.60517 21.0642 8.7676 20.7959 8.7676 20.5653C8.7676 20.3582 8.76038 19.8094 8.75767 19.0833C6.25366 19.6093 5.72488 17.9142 5.72488 17.9142C5.31702 16.9076 4.72599 16.6393 4.72599 16.6393C3.90936 16.0985 4.78825 16.1107 4.78825 16.1107C5.6924 16.1719 6.16613 17.009 6.16613 17.009C6.96922 18.3406 8.27401 17.9561 8.78474 17.7333C8.86685 17.1697 9.10146 16.7853 9.35773 16.5677C7.35994 16.3484 5.25927 15.6004 5.25927 12.2599C5.25927 11.3101 5.61029 10.5307 6.18328 9.92253C6.09214 9.70146 5.78083 8.81457 6.27261 7.61573C6.27261 7.61573 7.02787 7.38068 8.74684 8.50787C9.48098 8.31448 10.2383 8.21576 10.9991 8.21428C11.7599 8.21547 12.5173 8.31419 13.2514 8.50787C14.9712 7.37981 15.7256 7.61573 15.7256 7.61573C16.2174 8.81457 15.9088 9.70146 15.8149 9.92253C16.3924 10.5307 16.7389 11.3092 16.7389 12.2599C16.7389 15.6091 14.6365 16.3449 12.6314 16.5607C12.9518 16.8298 13.2405 17.3611 13.2405 18.1737C13.2405 19.3393 13.2297 20.2795 13.2297 20.5653C13.2297 20.7986 13.3903 21.0694 13.8496 20.9838C17.4247 19.8287 20 16.5642 20 12.7152C20 7.90146 15.971 4 11 4Z" fill="#D8D7C9"/>
</svg>
