<svg width="24" height="24" viewBox="0 0 24 24" fill="none" xmlns="http://www.w3.org/2000/svg">
<path fill-rule="evenodd" clip-rule="evenodd" d="M7.17092 4.13005C7.17092 5.40527 6.19132 6.43905 4.98292 6.43905C3.77452 6.43905 2.79492 5.40527 2.79492 4.13005C2.79492 2.85482 3.77452 1.82104 4.98292 1.82104C6.19132 1.82104 7.17092 2.85482 7.17092 4.13005ZM9.2377 20.9989V8.18862H12.8557V9.94043H12.9067C13.4097 8.93472 14.6397 7.87203 16.4747 7.87203C20.2967 7.87203 21.0007 10.524 21.0007 13.9748V21H17.2297V14.7695C17.2297 13.2847 17.2057 11.3735 15.2687 11.3735C13.3047 11.3735 13.0067 12.9924 13.0067 14.664V20.9989H9.2377ZM6.8707 8.18862H3.0957V20.9989H6.8707V8.18862Z" fill="#D8D7C9"/>
</svg>
