<svg width="29" height="29" viewBox="0 0 29 29" fill="none" xmlns="http://www.w3.org/2000/svg">
<rect width="29" height="29" rx="14.5" fill="#272D33"/>
<g clip-path="url(#clip0_647_46)">
<path d="M13.744 4.02494C13.6646 4.0333 13.4167 4.06267 13.198 4.08843C12.3163 4.189 11.3165 4.4538 10.4391 4.82343C7.26369 6.1502 4.87379 9.06116 4.21442 12.4C4.05922 13.1941 4.02148 13.5842 4.02148 14.5C4.02148 15.6804 4.13879 16.495 4.44969 17.5243C5.46605 20.8925 8.11205 23.5343 11.489 24.5546C12.5053 24.8615 13.3243 24.9788 14.5003 24.9788C15.6807 24.9788 16.4953 24.8615 17.5246 24.5506C20.8929 23.5343 23.5346 20.8883 24.5549 17.5114C24.8619 16.495 24.9792 15.676 24.9792 14.5C24.9792 14.0001 24.9542 13.4292 24.9247 13.2188C24.5844 10.7914 23.5846 8.7501 21.9178 7.08257C20.254 5.42783 18.2213 4.42426 15.844 4.084C15.5165 4.03773 14.0003 3.9954 13.744 4.02494ZM10.3212 10.6399C10.5443 10.7072 10.6486 10.7702 10.7999 10.9213C11.0941 11.2199 11.1613 11.3835 11.1613 11.8327C11.1613 12.1692 11.1485 12.232 11.048 12.4082C10.8544 12.7357 10.4052 13.0382 10.0944 13.0464C9.87573 13.051 9.88475 12.9542 10.124 12.7024C10.4431 12.3705 10.4892 12.2446 10.4892 11.7487C10.4852 11.2701 10.4263 11.1065 10.2039 10.972C10.0188 10.8586 9.81748 10.867 9.52332 11.0053C8.75879 11.3712 7.93142 12.589 7.60838 13.8367C7.17969 15.4998 7.93979 16.8308 9.19142 16.6039C9.55663 16.5367 10.2455 16.1843 10.5443 15.9067C10.7917 15.6804 10.7917 15.676 10.8166 15.3948C10.8717 14.8063 11.287 14.2186 11.842 13.9456C12.0976 13.8193 12.1611 13.8072 12.5053 13.8072C12.8328 13.8072 12.9084 13.8239 13.0681 13.9117C13.5762 14.2021 13.4712 14.878 12.9212 14.878C12.6021 14.878 12.4381 14.7139 12.6694 14.6263C12.8963 14.5423 12.8116 14.227 12.5476 14.1558C12.2367 14.0757 11.8837 14.2859 11.6612 14.689C11.3922 15.1763 11.3799 15.7561 11.6356 16.0202C11.8837 16.2848 12.1944 16.0753 12.4341 15.474C12.5598 15.1677 12.7404 15.0037 12.9507 15.0037C13.1353 15.0037 13.1693 15.1172 13.0891 15.4619C12.9713 15.9951 13.0513 16.1336 13.3832 15.9702C13.4922 15.9195 13.673 15.8023 13.7819 15.7183L13.9876 15.5543L14.1267 14.8275C14.278 14.0129 14.3363 13.9033 14.6472 13.8451C14.9457 13.7899 15.013 13.9373 14.9034 14.4032L14.8444 14.6641L15.0631 14.4409C15.5795 13.9117 16.214 13.6515 16.4325 13.87C16.5498 13.9873 16.537 14.1346 16.3692 14.655C16.2896 14.9031 16.18 15.2941 16.1301 15.5164C16.0545 15.8522 16.0499 15.9323 16.0924 15.9869C16.2269 16.1464 16.6382 15.9823 17.0036 15.6253L17.2177 15.4158L17.2433 14.9492C17.2682 14.4116 17.3183 14.2186 17.4612 14.0462C17.5957 13.8867 17.8393 13.7694 17.9694 13.8027C18.0995 13.8367 18.0995 13.9624 17.9822 14.3322C17.8182 14.8403 17.8354 16.0118 18.0034 16.0118C18.0706 16.0118 18.4147 15.6509 18.6334 15.3485L18.7968 15.1254L18.6667 14.9915C18.4398 14.752 18.3853 14.5968 18.3853 14.2058C18.3853 13.9207 18.4065 13.8155 18.4775 13.6764C18.5955 13.4585 18.7801 13.2991 18.9986 13.2356C19.2293 13.1644 19.5151 13.2817 19.6324 13.4918C19.7503 13.7059 19.721 14.1847 19.5695 14.5128L19.4606 14.7518H19.6074C19.8092 14.7518 19.8888 14.7018 20.2502 14.3615C20.4392 14.1809 20.6578 14.0252 20.8212 13.9496C21.464 13.6477 22.2203 13.8027 22.3458 14.2647C22.4508 14.6345 22.2203 14.8947 21.8165 14.8652C21.5268 14.8442 21.4723 14.7684 21.6403 14.6263C21.9427 14.3737 21.6403 14.0508 21.2077 14.1681C20.9724 14.2314 20.7078 14.4956 20.5695 14.8025C20.2919 15.4158 20.4392 16.138 20.8379 16.138C20.9975 16.138 21.2794 15.8228 21.3883 15.5164C21.5184 15.1633 21.7914 14.941 21.9972 15.0209C22.1107 15.0627 22.1191 15.1761 22.0479 15.5331C21.9678 15.9241 21.9555 16.2894 22.0183 16.4573C22.0434 16.5199 22.1191 16.6379 22.1908 16.7175C22.3246 16.8686 22.3292 16.9232 22.2157 16.9949C22.1612 17.0326 22.0894 17.0161 21.9133 16.9194C21.6697 16.7931 21.4595 16.5662 21.3839 16.3521L21.3378 16.2264L21.1698 16.3521C21.073 16.4194 20.9219 16.495 20.834 16.5199C20.4853 16.6123 20.0566 16.3733 19.8555 15.9702C19.7753 15.8143 19.7503 15.3569 19.8092 15.1805C19.8427 15.0837 19.8427 15.0837 19.708 15.151C19.637 15.1889 19.4857 15.2306 19.3684 15.2434C19.1748 15.2647 19.1453 15.2857 18.9525 15.5292C18.6795 15.8688 18.1962 16.3272 17.9988 16.424C17.5791 16.6335 17.4406 16.5746 17.3311 16.1418L17.2554 15.8522L17.0746 16.0118C16.844 16.2136 16.382 16.4573 16.1172 16.5162C15.8653 16.5706 15.5963 16.4906 15.4872 16.3226C15.3239 16.0707 15.3784 15.5375 15.6384 14.8191C15.8314 14.2859 15.6931 14.2777 15.206 14.7858C14.8445 15.1677 14.6893 15.4407 14.5888 15.865C14.4838 16.306 14.3574 16.4655 14.0723 16.5327C13.8999 16.5706 13.8196 16.4655 13.8537 16.2348L13.8787 16.0496L13.7191 16.1592C13.4922 16.3144 13.2064 16.4573 13.009 16.5117C12.8116 16.5662 12.5514 16.5078 12.4886 16.3982C12.3752 16.2054 12.3752 16.2054 12.199 16.3437C11.8164 16.6546 11.2704 16.5662 10.9935 16.1547L10.9049 16.0246L10.6281 16.2809C9.82962 17.0116 8.83048 17.3391 8.09105 17.1122C7.15016 16.8271 6.62975 16.0202 6.63812 14.857C6.64205 13.6894 7.15852 12.4589 8.02822 11.5475C8.51975 11.0348 8.98175 10.7323 9.45228 10.6189C9.79189 10.5349 9.99828 10.5392 10.3212 10.6399Z" fill="#00C4CC"/>
<path d="M18.8342 13.6266C18.7418 13.7188 18.7758 14.0886 18.8933 14.3239C18.9522 14.4456 19.015 14.5424 19.036 14.5424C19.0527 14.5424 19.0905 14.4456 19.12 14.3277C19.225 13.8913 19.036 13.4247 18.8342 13.6266Z" fill="#00C4CC"/>
</g>
<defs>
<clipPath id="clip0_647_46">
<rect width="21" height="21" fill="white" transform="translate(4 4)"/>
</clipPath>
</defs>
</svg>
