<svg width="29" height="29" viewBox="0 0 29 29" fill="none" xmlns="http://www.w3.org/2000/svg">
<rect width="29" height="29" rx="14.5" fill="#272D33"/>
<path d="M14.4933 22.8274L10.0011 21.5562L9 10.1104H20L18.9979 21.5544L14.4933 22.8274Z" fill="#264DE4"/>
<path d="M18.1399 20.8259L18.9963 11.0464H14.5V21.8546L18.1399 20.8259Z" fill="#2965F1"/>
<path d="M11.2949 15.2915L11.4183 16.6953H14.4999V15.2915H11.2949ZM11.0469 12.4502L11.172 13.854H14.4999V12.4502H11.0469ZM14.4999 18.9373L14.4939 18.9389L12.9603 18.5167L12.8622 17.3972H11.4798L11.6727 19.6013L14.4936 20.3995L14.4999 20.3978V18.9373Z" fill="#A4A3A3"/>
<path d="M11.5879 7H13.2557V7.71101H12.2854V8.42202H13.2558V9.13299H11.5879V7ZM13.5893 7H15.2572V7.61827H14.2868V7.74191H15.2572V9.16394H13.5894V8.51468H14.5598V8.39104H13.5893L13.5893 7ZM15.5908 7H17.2587V7.61827H16.2883V7.74191H17.2587V9.16394H15.5908V8.51468H16.5612V8.39104H15.5909L15.5908 7Z" fill="white"/>
<path d="M17.6952 15.2915L17.9438 12.4502H14.4942V13.854H16.4346L16.3093 15.2915H14.4942V16.6953H16.1899L16.03 18.5159L14.4941 18.9384V20.3989L17.3172 19.6013L17.3379 19.3641L17.6616 15.6684L17.6952 15.2915Z" fill="white"/>
</svg>
