<svg width="36" height="36" viewBox="0 0 36 36" fill="none" xmlns="http://www.w3.org/2000/svg">
<rect width="36" height="36" rx="10" fill="#111315"/>
<path d="M17.9624 28.9418L11.4511 27.0991L10 10.5085H25.9444L24.4918 27.0966L17.9624 28.9418Z" fill="#264DE4"/>
<path d="M23.2487 26.0405L24.49 11.8652H17.9727V27.5315L23.2487 26.0405Z" fill="#2965F1"/>
<path d="M13.3263 18.0183L13.5052 20.0531H17.972V18.0183H13.3263ZM12.9668 13.8999L13.1482 15.9347H17.972V13.8999H12.9668ZM17.972 23.3028L17.9632 23.3052L15.7402 22.6933L15.5981 21.0705H13.5944L13.874 24.2654L17.9628 25.4224L17.972 25.4198V23.3028Z" fill="#A4A3A3"/>
<path d="M13.752 6H16.1695V7.0306H14.763V8.06121H16.1696V9.09175H13.752V6ZM16.653 6H19.0706V6.89617H17.664V7.07539H19.0706V9.1366H16.6531V8.19551H18.0596V8.01629H16.653L16.653 6ZM19.5541 6H21.9717V6.89617H20.5651V7.07539H21.9717V9.1366H19.5541V8.19551H20.9607V8.01629H19.5542L19.5541 6Z" fill="white"/>
<path d="M22.6047 18.0183L22.965 13.8999H17.9649V15.9347H20.7775L20.5959 18.0183H17.9649V20.0531H20.4228L20.1911 22.692L17.9648 23.3045V25.4214L22.0569 24.2654L22.0869 23.9216L22.556 18.5647L22.6047 18.0183Z" fill="white"/>
</svg>
