<svg width="36" height="36" viewBox="0 0 36 36" fill="none" xmlns="http://www.w3.org/2000/svg">
<rect width="36" height="36" rx="10" fill="#111315"/>
<path d="M14.5 27.9999C16.432 27.9999 18 26.5066 18 24.6666V21.3333H14.5C12.568 21.3333 11 22.8266 11 24.6666C11 26.5066 12.568 27.9999 14.5 27.9999Z" fill="#0ACF83"/>
<path d="M11 18.0001C11 16.1601 12.568 14.6667 14.5 14.6667H18V21.3334H14.5C12.568 21.3334 11 19.8401 11 18.0001Z" fill="#A259FF"/>
<path d="M11 11.3333C11 9.49333 12.568 8 14.5 8H18V14.6667H14.5C12.568 14.6667 11 13.1733 11 11.3333Z" fill="#F24E1E"/>
<path d="M18 8H21.5C23.432 8 25 9.49333 25 11.3333C25 13.1733 23.432 14.6667 21.5 14.6667H18V8Z" fill="#FF7262"/>
<path d="M25 18.0001C25 19.8401 23.432 21.3334 21.5 21.3334C19.568 21.3334 18 19.8401 18 18.0001C18 16.1601 19.568 14.6667 21.5 14.6667C23.432 14.6667 25 16.1601 25 18.0001Z" fill="#1ABCFE"/>
</svg>
