<svg width="29" height="29" viewBox="0 0 29 29" fill="none" xmlns="http://www.w3.org/2000/svg">
<rect width="29" height="29" rx="14.5" fill="#272D33"/>
<path d="M12.5 21.2856C13.88 21.2856 15 20.2189 15 18.9046V16.5237H12.5C11.12 16.5237 10 17.5903 10 18.9046C10 20.2189 11.12 21.2856 12.5 21.2856Z" fill="#0ACF83"/>
<path d="M10 14.1429C10 12.8286 11.12 11.762 12.5 11.762H15V16.5239H12.5C11.12 16.5239 10 15.4572 10 14.1429Z" fill="#A259FF"/>
<path d="M10 9.38095C10 8.06667 11.12 7 12.5 7H15V11.7619H12.5C11.12 11.7619 10 10.6952 10 9.38095Z" fill="#F24E1E"/>
<path d="M15 7H17.5C18.88 7 20 8.06667 20 9.38095C20 10.6952 18.88 11.7619 17.5 11.7619H15V7Z" fill="#FF7262"/>
<path d="M20 14.1429C20 15.4572 18.88 16.5239 17.5 16.5239C16.12 16.5239 15 15.4572 15 14.1429C15 12.8286 16.12 11.762 17.5 11.762C18.88 11.762 20 12.8286 20 14.1429Z" fill="#1ABCFE"/>
</svg>
