<svg width="29" height="29" viewBox="0 0 29 29" fill="none" xmlns="http://www.w3.org/2000/svg">
<rect width="29" height="29" rx="14.5" fill="#272D33"/>
<g clip-path="url(#clip0_647_54)">
<path d="M18.2085 10.7922C20.2593 12.843 20.2593 16.1652 18.2085 18.216C17.1831 19.2414 17.1831 20.9066 18.2085 21.9238C19.2339 22.9492 20.8991 22.9492 21.9245 21.9238C26.0261 17.8223 26.0261 11.1777 21.9245 7.07617L18.2085 10.7922Z" fill="#EA4335"/>
<path d="M21.9156 7.07617C17.8141 2.97461 11.1777 2.97461 7.07617 7.07617C2.97461 11.1777 2.97461 17.8223 7.07617 21.9238L10.7922 18.216C8.74141 16.1652 8.74141 12.843 10.7922 10.7922C12.843 8.74141 16.1652 8.74141 18.216 10.7922C19.2414 11.8176 20.9066 11.8176 21.932 10.7922C22.941 9.7668 22.941 8.10156 21.9156 7.07617Z" fill="url(#paint0_linear_647_54)"/>
<path d="M21.9164 21.9239L18.2004 18.2161C16.1496 20.2668 12.8273 20.2668 10.7766 18.2161L7.06055 21.9239C11.1785 26.0254 17.8148 26.0254 21.9164 21.9239Z" fill="#FBBC04"/>
<path d="M18.2085 18.2161C19.2339 17.1907 20.8909 17.1907 21.9163 18.2161C22.9417 19.2415 22.9417 20.9067 21.9163 21.9321C20.8909 22.9575 19.2339 22.9575 18.2085 21.9321C17.1831 20.9067 17.1831 19.2415 18.2085 18.2161Z" fill="#EA4335"/>
<path d="M7.07568 18.2161C8.10107 17.1907 9.75811 17.1907 10.7835 18.2161C11.8089 19.2415 11.8089 20.9067 10.7835 21.9321C9.75811 22.9575 8.10107 22.9575 7.07568 21.9321C6.05029 20.9067 6.05029 19.2415 7.07568 18.2161Z" fill="#34A853"/>
</g>
<defs>
<linearGradient id="paint0_linear_647_54" x1="4" y1="900.191" x2="1872.65" y2="900.191" gradientUnits="userSpaceOnUse">
<stop stop-color="#246FDB"/>
<stop offset="0.0552" stop-color="#2973DF"/>
<stop offset="0.2781" stop-color="#377DEB"/>
<stop offset="0.5491" stop-color="#3F83F2"/>
<stop offset="1" stop-color="#4285F4"/>
</linearGradient>
<clipPath id="clip0_647_54">
<rect width="21" height="21" fill="white" transform="translate(4 4)"/>
</clipPath>
</defs>
</svg>
