<svg width="29" height="29" viewBox="0 0 29 29" fill="none" xmlns="http://www.w3.org/2000/svg">
<rect width="29" height="29" rx="14.5" fill="#272D33"/>
<path d="M20 10.1104L18.9979 21.5544L14.4933 22.8274L10.0011 21.5562L9 10.1104H20Z" fill="#E44D26"/>
<path d="M14.5 21.8546L18.1399 20.8259L18.9963 11.0464H14.5V21.8546Z" fill="#F16529"/>
<path d="M12.5518 13.854H14.4999V12.4502H11.0469L11.0798 12.8268L11.4183 16.6953H14.4999V15.2915H12.6777L12.5518 13.854ZM12.8622 17.3972H11.4798L11.6727 19.6013L14.4936 20.3995L14.4999 20.3978V18.9373L14.4939 18.9389L12.9603 18.5167L12.8622 17.3972Z" fill="#A4A3A3"/>
<path d="M10.0234 7H10.7233V7.70481H11.3634V7H12.0633V9.13435H11.3635V8.41965H10.7233V9.13435H10.0235L10.0234 7ZM12.9835 7.7078H12.3675V7H14.2999V7.7078H13.6835V9.13435H12.9837L12.9835 7.7078ZM14.6065 7H15.3362L15.7851 7.74996L16.2335 7H16.9635V9.13435H16.2665V8.07645L15.7851 8.83533H15.773L15.2912 8.07645V9.13435H14.6065V7ZM17.3118 7H18.0118V8.42888H18.996V9.13435H17.3117L17.3118 7Z" fill="white"/>
<path d="M14.4942 16.6953H16.1899L16.03 18.5159L14.4941 18.9384V20.3989L17.3172 19.6013L17.3379 19.3641L17.6616 15.6684L17.6952 15.2915H14.4942V16.6953ZM14.4942 13.8505V13.854H17.8205L17.8481 13.5385L17.9109 12.8268L17.9438 12.4502H14.4942V13.8505Z" fill="white"/>
</svg>
