<svg width="36" height="36" viewBox="0 0 36 36" fill="none" xmlns="http://www.w3.org/2000/svg">
<rect width="35.9444" height="36" rx="10" fill="#111315"/>
<path d="M25.9444 9.50854L24.4918 26.0966L17.9624 27.9418L11.4511 26.0991L10 9.50854H25.9444Z" fill="#E44D26"/>
<path d="M17.9727 26.5315L23.2487 25.0405L24.49 10.8652H17.9727V26.5315Z" fill="#F16529"/>
<path d="M15.1482 14.9347H17.972V12.8999H12.9668L13.0145 13.4458L13.5052 19.0531H17.972V17.0183H15.3307L15.1482 14.9347ZM15.5981 20.0705H13.5944L13.874 23.2654L17.9628 24.4224L17.972 24.4198V22.3028L17.9632 22.3052L15.7402 21.6933L15.5981 20.0705Z" fill="#A4A3A3"/>
<path d="M11.4844 5H12.4988V6.02162H13.4267V5H14.4411V8.09372H13.4268V7.05777H12.4988V8.09372H11.4844L11.4844 5ZM15.775 6.02595H14.8821V5H17.683V6.02595H16.7896V8.09372H15.7752L15.775 6.02595ZM18.1275 5H19.1852L19.8358 6.08705L20.4858 5H21.5439V8.09372H20.5337V6.5603L19.8358 7.66029H19.8183L19.12 6.5603V8.09372H18.1275V5ZM22.0488 5H23.0634V7.07115H24.4899V8.09372H22.0487L22.0488 5Z" fill="white"/>
<path d="M17.9649 19.0531H20.4228L20.1911 21.692L17.9648 22.3045V24.4214L22.0569 23.2654L22.0869 22.9216L22.556 17.5647L22.6047 17.0183H17.9649V19.0531ZM17.9649 14.9297V14.9347H22.7863L22.8263 14.4773L22.9173 13.4458L22.965 12.8999H17.9649V14.9297Z" fill="white"/>
</svg>
