<svg width="29" height="29" viewBox="0 0 29 29" fill="none" xmlns="http://www.w3.org/2000/svg">
<rect width="29" height="29" rx="14.5" fill="#272D33"/>
<path d="M16.9152 16.9582C17.122 17.3774 17.4429 17.7298 17.841 17.9748C18.2391 18.2199 18.6982 18.3476 19.1657 18.3434C20.1109 18.3434 20.7149 17.8708 20.7149 17.2182C20.7149 16.4362 20.0942 16.1589 19.0543 15.7036L18.4837 15.459C16.8378 14.7577 15.7439 13.8791 15.7439 12.0219C15.7439 10.3107 17.0478 9.00884 19.085 9.00884C19.7462 8.96087 20.4068 9.10886 20.9843 9.43432C21.5619 9.75978 22.0306 10.2483 22.3321 10.8387L20.5555 11.9793C20.4392 11.6867 20.2366 11.4364 19.9747 11.2618C19.7127 11.0871 19.4038 10.9963 19.089 11.0013C18.9518 10.9875 18.8132 11.0025 18.6821 11.0452C18.5509 11.0879 18.4301 11.1575 18.3274 11.2495C18.2247 11.3416 18.1422 11.454 18.0854 11.5796C18.0285 11.7052 17.9984 11.8414 17.9971 11.9793C17.9971 12.6639 18.421 12.9405 19.397 13.3645L19.9676 13.6085C21.9061 14.4397 23 15.287 23 17.1922C23 19.246 21.3868 20.3712 19.2196 20.3712C18.3755 20.4249 17.5338 20.2332 16.7962 19.8192C16.0586 19.4052 15.4565 18.7866 15.0627 18.0381L16.9152 16.9582ZM8.85718 17.1582C9.21582 17.7941 9.54179 18.3314 10.3237 18.3314C11.073 18.3314 11.5463 18.0381 11.5463 16.8982V9.14217H13.8274V16.9302C13.8274 19.292 12.4422 20.3672 10.421 20.3672C9.7071 20.4059 8.99818 20.2275 8.38755 19.8555C7.77692 19.4836 7.29319 18.9355 7 18.2834L8.85718 17.1582Z" fill="#FBC02D"/>
</svg>
