<svg width="36" height="36" viewBox="0 0 36 36" fill="none" xmlns="http://www.w3.org/2000/svg">
<rect width="36" height="36" rx="10" fill="#111315"/>
<path d="M20.0148 20.446C20.2862 20.9963 20.7074 21.4588 21.23 21.7804C21.7525 22.1021 22.3552 22.2698 22.9688 22.2642C24.2095 22.2642 25.0023 21.6439 25.0023 20.7872C25.0023 19.7609 24.1876 19.3969 22.8226 18.7992L22.0736 18.4781C19.9133 17.5576 18.4774 16.4044 18.4774 13.9666C18.4774 11.7205 20.1889 10.0116 22.8629 10.0116C23.7307 9.94863 24.5979 10.1429 25.356 10.5701C26.1141 10.9973 26.7294 11.6385 27.125 12.4135L24.7931 13.9106C24.6404 13.5266 24.3745 13.1981 24.0307 12.9688C23.6868 12.7395 23.2813 12.6203 22.8681 12.627C22.688 12.6089 22.5061 12.6285 22.334 12.6846C22.1619 12.7407 22.0033 12.832 21.8685 12.9528C21.7336 13.0735 21.6254 13.2211 21.5508 13.386C21.4761 13.5509 21.4366 13.7296 21.4349 13.9106C21.4349 14.8092 21.9914 15.1724 23.2724 15.7289L24.0214 16.0491C26.5659 17.1402 28.0018 18.2524 28.0018 20.7531C28.0018 23.449 25.8843 24.926 23.0396 24.926C21.9316 24.9965 20.8268 24.7448 19.8586 24.2014C18.8904 23.658 18.1001 22.846 17.5831 21.8635L20.0148 20.446ZM9.43775 20.7085C9.9085 21.5432 10.3364 22.2485 11.3627 22.2485C12.3462 22.2485 12.9675 21.8635 12.9675 20.3672V10.1866H15.9618V20.4092C15.9618 23.5094 14.1435 24.9207 11.4905 24.9207C10.5534 24.9715 9.62283 24.7373 8.82131 24.2491C8.01979 23.7609 7.38484 23.0415 7 22.1855L9.43775 20.7085Z" fill="#FBC02D"/>
</svg>
