<svg width="78" height="37" viewBox="0 0 78 37" fill="none" xmlns="http://www.w3.org/2000/svg">
<path d="M22.9883 29H18.7988V14C18.7988 13.707 18.7402 13.4336 18.623 13.1797C18.5156 12.9258 18.3643 12.7061 18.1689 12.5205C17.9834 12.3252 17.7637 12.1738 17.5098 12.0664C17.2559 11.959 16.9824 11.9053 16.6895 11.9053C16.3965 11.9053 16.123 11.959 15.8691 12.0664C15.6152 12.1738 15.3906 12.3252 15.1953 12.5205C15.0098 12.7061 14.8633 12.9258 14.7559 13.1797C14.6484 13.4336 14.5947 13.707 14.5947 14V29H10.3906V14C10.3906 13.707 10.3369 13.4336 10.2295 13.1797C10.1221 12.9258 9.9707 12.7061 9.77539 12.5205C9.58984 12.3252 9.37012 12.1738 9.11621 12.0664C8.8623 11.959 8.58887 11.9053 8.2959 11.9053C8.00293 11.9053 7.72949 11.959 7.47559 12.0664C7.22168 12.1738 6.99707 12.3252 6.80176 12.5205C6.61621 12.7061 6.46973 12.9258 6.3623 13.1797C6.25488 13.4336 6.20117 13.707 6.20117 14V29H1.99707V14C1.99707 13.1309 2.1582 12.3154 2.48047 11.5537C2.8125 10.7822 3.26172 10.1133 3.82812 9.54688C4.4043 8.9707 5.07324 8.52148 5.83496 8.19922C6.60645 7.86719 7.42676 7.70117 8.2959 7.70117C9.07715 7.70117 9.8291 7.84277 10.5518 8.12598C11.2744 8.39941 11.9238 8.7998 12.5 9.32715C13.0762 8.7998 13.7207 8.39941 14.4336 8.12598C15.1562 7.84277 15.9082 7.70117 16.6895 7.70117C17.5586 7.70117 18.374 7.86719 19.1357 8.19922C19.9072 8.52148 20.5762 8.9707 21.1426 9.54688C21.7188 10.1133 22.168 10.7822 22.4902 11.5537C22.8223 12.3154 22.9883 13.1309 22.9883 14V29Z" fill="#F1F1DD"/>
<path d="M40.5183 9.05431C40.7279 7.97519 42.2721 7.97519 42.4817 9.05431L43.7296 15.4794C43.8073 15.8797 44.1203 16.1927 44.5206 16.2704L50.9457 17.5183C52.0248 17.7279 52.0248 19.2721 50.9457 19.4817L44.5206 20.7296C44.1203 20.8073 43.8073 21.1203 43.7296 21.5206L42.4817 27.9457C42.2721 29.0248 40.7279 29.0248 40.5183 27.9457L39.2704 21.5206C39.1927 21.1203 38.8797 20.8073 38.4794 20.7296L32.0543 19.4817C30.9752 19.2721 30.9752 17.7279 32.0543 17.5183L38.4794 16.2704C38.8797 16.1927 39.1927 15.8797 39.2704 15.4794L40.5183 9.05431Z" fill="#D5FF3F"/>
<path d="M77.1113 26.8467C76.1348 27.6865 75.041 28.3311 73.8301 28.7803C72.6191 29.2295 71.3643 29.4541 70.0654 29.4541C69.0693 29.4541 68.1074 29.3223 67.1797 29.0586C66.2617 28.8047 65.3975 28.4434 64.5869 27.9746C63.7861 27.4961 63.0537 26.9248 62.3896 26.2607C61.7256 25.5967 61.1543 24.8643 60.6758 24.0635C60.207 23.2529 59.8408 22.3887 59.5771 21.4707C59.3232 20.543 59.1963 19.5811 59.1963 18.585C59.1963 17.5889 59.3232 16.627 59.5771 15.6992C59.8408 14.7715 60.207 13.9072 60.6758 13.1064C61.1543 12.2959 61.7256 11.5586 62.3896 10.8945C63.0537 10.2305 63.7861 9.66406 64.5869 9.19531C65.3975 8.7168 66.2617 8.35059 67.1797 8.09668C68.1074 7.83301 69.0693 7.70117 70.0654 7.70117C71.3643 7.70117 72.6191 7.92578 73.8301 8.375C75.041 8.81445 76.1348 9.45898 77.1113 10.3086L74.8848 13.9707C74.2695 13.3066 73.542 12.7988 72.7021 12.4473C71.8623 12.0859 70.9834 11.9053 70.0654 11.9053C69.1377 11.9053 68.2686 12.0811 67.458 12.4326C66.6475 12.7842 65.9395 13.2627 65.334 13.8682C64.7285 14.4639 64.25 15.1719 63.8984 15.9922C63.5469 16.8027 63.3711 17.667 63.3711 18.585C63.3711 19.5029 63.5469 20.3672 63.8984 21.1777C64.25 21.9785 64.7285 22.6816 65.334 23.2871C65.9395 23.8926 66.6475 24.3711 67.458 24.7227C68.2686 25.0742 69.1377 25.25 70.0654 25.25C70.9834 25.25 71.8623 25.0742 72.7021 24.7227C73.542 24.3613 74.2695 23.8486 74.8848 23.1846L77.1113 26.8467Z" fill="#F1F1DD"/>
</svg>
