<svg version="1.1" id="Layer_1" xmlns="http://www.w3.org/2000/svg" xmlns:xlink="http://www.w3.org/1999/xlink" x="0px" y="0px" viewBox="0 0 500 500" style="width: 166px;" xml:space="preserve" data-imageid="office-work-28" imageName="Office Work" class="illustrations_image">
<style type="text/css">
	.st0_office-work-28{fill:#D1D3D4;}
	.st1_office-work-28{fill:#FFFFFF;}
	.st2_office-work-28{fill:#231F20;}
	.st3_office-work-28{fill:#68E1FD;}
</style>
<path id="floor_office-work-28" class="st0_office-work-28" d="M456.8,408.9H24.7c-0.4,0-0.8-0.3-0.9-0.7c0-0.4,0.3-0.8,0.7-0.9c0.1,0,0.1,0,0.2,0h432.2&#10;&#9;c0.4,0,0.8,0.3,0.9,0.7s-0.3,0.8-0.7,0.9C456.9,408.9,456.9,408.9,456.8,408.9z"/>
<g id="window_office-work-28">
	<rect x="220.9" y="90.7" class="st1_office-work-28" width="241.2" height="173.3"/>
	<path class="st0_office-work-28" d="M462.1,264.8H220.9c-0.4,0-0.8-0.3-0.8-0.8c0,0,0,0,0,0V90.7c0-0.4,0.3-0.8,0.8-0.8h241.2&#10;&#9;&#9;c0.4,0,0.8,0.3,0.8,0.8V264C462.9,264.4,462.5,264.8,462.1,264.8C462.1,264.8,462.1,264.8,462.1,264.8z M221.7,263.2h239.6V91.4&#10;&#9;&#9;H221.7L221.7,263.2z"/>
	<path class="st0_office-work-28" d="M297.5,262.5c-0.4,0-0.8-0.3-0.8-0.8V90.7c0-0.4,0.3-0.8,0.8-0.8c0.4,0,0.8,0.3,0.8,0.8c0,0,0,0,0,0v171.1&#10;&#9;&#9;C298.3,262.2,298,262.5,297.5,262.5z"/>
	<path class="st0_office-work-28" d="M385.4,262.5c-0.4,0-0.8-0.3-0.8-0.8V90.7c0-0.4,0.3-0.8,0.8-0.8c0.4,0,0.8,0.3,0.8,0.8c0,0,0,0,0,0v171.1&#10;&#9;&#9;C386.2,262.2,385.9,262.5,385.4,262.5z"/>
	<path class="st0_office-work-28" d="M462.1,99.2H220.9c-0.4,0-0.8-0.3-0.8-0.8c0,0,0,0,0,0c0-0.4,0.3-0.8,0.8-0.8h241.2c0.4,0,0.8,0.3,0.8,0.8&#10;&#9;&#9;C462.9,98.9,462.5,99.3,462.1,99.2C462.1,99.3,462.1,99.3,462.1,99.2z"/>
	<path class="st0_office-work-28" d="M462.1,108.8H220.9c-0.4,0-0.8-0.4-0.8-0.8c0-0.4,0.3-0.8,0.8-0.8h241.2c0.4,0,0.8,0.3,0.8,0.8&#10;&#9;&#9;C462.9,108.4,462.5,108.7,462.1,108.8C462.1,108.8,462.1,108.8,462.1,108.8z"/>
	<path class="st0_office-work-28" d="M462.1,118.2H220.9c-0.4,0-0.8-0.4-0.8-0.8c0-0.4,0.3-0.8,0.8-0.8h241.2c0.4,0,0.8,0.3,0.8,0.8&#10;&#9;&#9;C462.9,117.9,462.5,118.2,462.1,118.2C462.1,118.2,462.1,118.2,462.1,118.2z"/>
	<path class="st0_office-work-28" d="M462.1,127.7H220.9c-0.4,0-0.8-0.4-0.8-0.8c0-0.4,0.3-0.8,0.8-0.8h241.2c0.4,0,0.8,0.3,0.8,0.8&#10;&#9;&#9;C462.9,127.4,462.5,127.7,462.1,127.7C462.1,127.7,462.1,127.7,462.1,127.7z"/>
	<path class="st0_office-work-28" d="M462.1,256.7H220.9c-0.4,0-0.8-0.4-0.8-0.8c0-0.4,0.3-0.8,0.8-0.8h241.2c0.4,0,0.8,0.3,0.8,0.8&#10;&#9;&#9;C462.9,256.3,462.5,256.7,462.1,256.7C462.1,256.7,462.1,256.7,462.1,256.7z"/>
</g>
<g id="chair_office-work-28">
	<rect x="259.1" y="338.8" class="st1_office-work-28" width="18.2" height="14.7"/>
	<path class="st2_office-work-28" d="M277.3,354.2h-18.2c-0.4,0-0.7-0.3-0.7-0.7v-14.7c0-0.4,0.3-0.7,0.7-0.7h18.2c0.4,0,0.7,0.3,0.7,0.7&#10;&#9;&#9;c0,0,0,0,0,0v14.7C278.1,353.9,277.7,354.2,277.3,354.2C277.3,354.2,277.3,354.2,277.3,354.2z M259.8,352.8h16.8v-13.2h-16.8V352.8&#10;&#9;&#9;z"/>
	<rect x="262.7" y="353.4" class="st2_office-work-28" width="11.1" height="65.7"/>
	<path class="st2_office-work-28" d="M273.8,419.8h-11.1c-0.4,0-0.8-0.3-0.8-0.8v-65.7c0-0.4,0.3-0.8,0.8-0.8c0,0,0,0,0,0h11.1&#10;&#9;&#9;c0.4,0,0.8,0.3,0.8,0.8c0,0,0,0,0,0V419C274.6,419.4,274.2,419.8,273.8,419.8C273.8,419.8,273.8,419.8,273.8,419.8z M263.4,418.3&#10;&#9;&#9;h9.6v-64.1h-9.5L263.4,418.3z"/>
	<path class="st2_office-work-28" d="M302.6,424.1c-21.6-6.7-44.8-6.7-66.4,0H302.6z"/>
	<path class="st2_office-work-28" d="M302.6,424.8h-66.4c-0.4,0-0.8-0.4-0.8-0.8c0-0.3,0.2-0.6,0.5-0.7c21.8-6.7,45.1-6.7,66.9,0&#10;&#9;&#9;c0.4,0.1,0.6,0.6,0.5,1C303.2,424.6,302.9,424.8,302.6,424.8z M241.7,423.3H297C278.8,418.7,259.8,418.7,241.7,423.3L241.7,423.3z"/>
	<path class="st1_office-work-28" d="M334.5,225.9h-74.4c0,0-5.6,66.6-9.1,82.1s-18,20.2-28.6,19.9s-37.9-3.3-39,0s1.8,9.6,13.4,12.6&#10;&#9;&#9;s82.3,2.5,82.3,2.5s24.7-7.8,38.4-24.8S338.3,241.9,334.5,225.9z"/>
	<path class="st2_office-work-28" d="M267.3,343.9c-20.7,0-61.8-0.3-70.6-2.6c-8.6-2.2-11.9-6.1-13.1-8.3c-1-1.6-1.3-3.5-0.8-5.3&#10;&#9;&#9;c0.8-2.5,9-2.4,28.4-1.1c4.3,0.3,8.4,0.5,11.2,0.6c11.3,0.3,24.5-4.7,27.9-19.4c3.5-15.4,9-81.4,9.1-82.1c0-0.4,0.3-0.6,0.7-0.6&#10;&#9;&#9;h74.4c0.3,0,0.6,0.2,0.7,0.6c3.8,16.1-3,75.5-17.1,93.1c-13.6,17-38.5,24.9-38.7,25h-0.2C278.5,343.8,274,343.9,267.3,343.9z&#10;&#9;&#9; M191.8,327.1c-4.1,0-7.2,0.3-7.6,1c-0.3,1.4-0.1,2.9,0.7,4.1c1.1,1.9,4.1,5.5,12.2,7.6c11.2,2.9,78.8,2.5,82,2.5&#10;&#9;&#9;c1.7-0.6,25-8.4,38-24.5c13.4-16.7,20.3-75,16.9-91.3h-73.2c-0.6,7-5.7,67-9.1,81.6c-2.3,10.2-11.2,20.9-29.3,20.5&#10;&#9;&#9;c-2.9-0.1-7-0.3-11.3-0.6C205.8,327.7,197.7,327.1,191.8,327.1L191.8,327.1z"/>
	<path class="st1_office-work-28" d="M267.5,332.9c0,0,3.3,9.5,11.7,10.2s38.5-0.7,48.3-29.2c11.6-33.8,15.2-82.3,10.6-86.5s-7.3,0.4-7.3,10.9&#10;&#9;&#9;c0,8-5.6,48.9-9.1,66.4C316.5,330.3,278.9,335.6,267.5,332.9z"/>
	<path class="st2_office-work-28" d="M282.9,344c-1.4,0-2.7,0-3.8-0.2c-8.7-0.8-12.1-10.3-12.3-10.7c-0.1-0.2,0-0.5,0.1-0.7&#10;&#9;&#9;c0.2-0.2,0.4-0.3,0.7-0.2c7.8,1.8,26.2-0.1,39.2-8.5c7.8-5,12.5-11.4,14-19.2c3.5-17.3,9.1-58.2,9.1-66.3c0-5.1,0.7-11.5,3.8-12.9&#10;&#9;&#9;c1.4-0.6,3-0.1,4.8,1.5c5,4.6,1.2,53.4-10.4,87.3C319.9,338,296.8,344,282.9,344z M268.7,333.9c1.2,2.5,4.5,8,10.5,8.5&#10;&#9;&#9;c0.4,0,36.6,3,47.5-28.7c11.6-33.9,14.9-82,10.8-85.8c-1.3-1.2-2.4-1.6-3.2-1.2c-1.8,0.8-2.9,5.1-2.9,11.5c0,8.1-5.6,49.2-9.1,66.6&#10;&#9;&#9;c-1.6,8.2-6.6,15-14.7,20.1C295,333,277.3,335.3,268.7,333.9L268.7,333.9z"/>
</g>
<g id="plant_office-work-28">
	<path class="st2_office-work-28" d="M426.5,338.6c0.2-2.5-0.4-5-1.5-7.2c-1-1.6-2.5-2.9-3.2-4.6c-1.4-3-0.4-6.4-0.7-9.6c-0.3-2.7-1.5-5.2-3.4-7.2&#10;&#9;&#9;c-1.7-1.7-3.9-2.9-5.5-4.7c-2.6-2.9-3.4-7-4.9-10.7c-2.1-5.2-5.8-9.5-10.6-12.5c2.9,5.8-3.7,13.2-0.7,19c1,1.8,2.8,3.2,3.4,5.1&#10;&#9;&#9;c1.7,4.7-3.9,9.7-2.1,14.4c0.9,2.3,3.4,3.6,4.5,5.9c1.5,3,0.3,6.5,0.5,9.9c0.2,4.6,3,8.7,6.3,11.9c2.1,2,4.4,3.7,6.6,5.5&#10;&#9;&#9;c2.7,2.1,3.8,4.4,6.2,1C424.6,350,426.4,344.4,426.5,338.6z"/>
	<path class="st2_office-work-28" d="M429.5,341.3c-0.9-3.6-1.5-7.4,0-10.8c1.6-3.8,5.8-6.5,6.2-10.6c0.3-2.7-1.1-5.4-0.5-8.1s2.7-4.5,4.5-6.5&#10;&#9;&#9;c4.1-4.5,6.6-10.4,7-16.5c2.6,3.4,5.2,6.9,6.6,11s1.4,8.8-1,12.4c-0.7,0.8-1.3,1.7-1.7,2.7c-0.8,2.6,1.4,5.1,2.6,7.6&#10;&#9;&#9;c1.4,2.9,1.1,6.3-0.8,8.9c-2.4,2.9-6.9,4.1-8.1,7.7c-0.3,1.3-0.4,2.7-0.4,4.1c-0.5,4.8-3.9,8.9-8.6,10.2c-2.8,0.7-2.7-0.4-3.2-2.8&#10;&#9;&#9;C431.5,347.5,430.3,344.4,429.5,341.3z"/>
	<path class="st2_office-work-28" d="M420.7,315.6c-2-6.9-2.8-14-4.9-20.8c-1.8-5.3-4-10.5-6.5-15.5l8.5,3.6c2.7,1.1,5.7,2.5,7,5.2&#10;&#9;&#9;c2.2,4.6-1.8,10.6,0.6,15.2c0.8,1.6,2.3,2.8,3.4,4.2c2.5,3.5,2.1,8.4,0.8,12.4c-0.6,1.8-3.2,10.9-5.5,8.3c-0.9-1-1-4.8-1.4-6.2&#10;&#9;&#9;C422,319.9,421.3,317.8,420.7,315.6z"/>
	<path class="st2_office-work-28" d="M425.3,406.7c-1.7-11.2-7-50.7-7-51.1l1.5-0.2c0,0.4,5.4,39.9,7,51.1L425.3,406.7z"/>
	<path class="st2_office-work-28" d="M427.4,417.3h-1.6c0.1-13.3,5.6-64.1,8.9-67.6l1.1,1C433.4,353.3,427.5,402.5,427.4,417.3z"/>
	<path class="st2_office-work-28" d="M430.2,414.7l-1.6-0.1c1.3-28.7-4.8-88.9-4.9-89.5l1.5-0.2C425.4,325.6,431.5,385.9,430.2,414.7z"/>
	<path class="st1_office-work-28" d="M410.8,374.6h31.6l-2.2,35.9c-0.4,6.2-5,11-10.5,11h-6.1c-5.5,0-10.2-4.8-10.5-11L410.8,374.6z"/>
	<path class="st2_office-work-28" d="M429.6,422.4h-6.1c-6,0-10.9-5.2-11.4-11.8l-2.2-35.9c0-0.2,0.1-0.4,0.2-0.6c0.2-0.2,0.4-0.3,0.6-0.2h31.6&#10;&#9;&#9;c0.2,0,0.4,0.1,0.6,0.2c0.1,0.2,0.2,0.4,0.2,0.6l-2.2,35.9C440.6,417.2,435.6,422.4,429.6,422.4z M411.6,375.4l2.2,35.1&#10;&#9;&#9;c0.4,5.8,4.6,10.3,9.7,10.3h6.1c5.1,0,9.4-4.5,9.8-10.3l2.2-35.1H411.6z"/>
</g>
<g id="Character_office-work-28">
	<path class="st2_office-work-28" d="M146.7,295.1c-1.6,3.2,0.8,6,6.7,6h16.2c2.4,0,8.4-7.2,5.4-10.9S148.2,291.9,146.7,295.1z"/>
	<path class="st2_office-work-28" d="M169.6,301.8h-16.2c-3.6,0-6.2-1-7.4-2.9c-0.8-1.3-0.8-2.9,0-4.3c1.3-2.6,12.4-5.5,19.5-6.3&#10;&#9;&#9;c5.5-0.6,8.9-0.2,10.1,1.2s1.3,3.8,0.1,6.4C174.5,298.8,171.6,301.8,169.6,301.8z M169.9,289.7c-1.4,0-2.8,0.1-4.2,0.3&#10;&#9;&#9;c-8.4,1-17.6,3.9-18.3,5.4c-0.5,0.9-0.5,1.9,0,2.8c0.8,1.4,3.1,2.1,6.1,2.1h16.2c1,0,3.5-2.2,4.8-4.9c0.5-1.1,1.3-3.3,0.1-4.7&#10;&#9;&#9;C174,290.1,172.6,289.7,169.9,289.7L169.9,289.7z"/>
	<path class="st1_office-work-28" d="M190.6,281.5c-5.1,1-10.2,2.1-15.4,2c-3.8,0-7.2-1.1-11-0.4c-3.7,0.7-7.1,2.2-10.1,4.5&#10;&#9;&#9;c-0.4,0.3-0.9,0.8-0.7,1.3c0.1,0.3,0.3,0.5,0.6,0.6c1.5,0.8,3.1-0.2,4.5-0.6c1.5-0.4,3-0.6,4.6-0.6c3.3-0.2,6.5,0.7,9.2,2.6&#10;&#9;&#9;c0.4,0.2,0.7,0.6,0.8,1c0.1,0.5-0.1,1-0.5,1.4c-0.4,0.3-0.8,0.6-1.3,0.8l-5,2.1c-0.3,0.1-0.6,0.4-0.5,0.6c0.1,0.1,0.2,0.2,0.4,0.3&#10;&#9;&#9;c4.9,1.8,10.1-1.5,14.8-2.6c5.1-1.2,10.3-1.9,15.6-2.2c-1.9-3.2-2.5-7-1.6-10.6"/>
	<path class="st2_office-work-28" d="M169.4,298.4c-1.1,0-2.3-0.2-3.3-0.6c-0.4-0.1-0.6-0.4-0.8-0.7c-0.2-0.5,0-1.2,0.9-1.5l4.9-2.1&#10;&#9;&#9;c0.4-0.1,0.8-0.4,1.1-0.6c0.2-0.2,0.3-0.4,0.3-0.7c0-0.2-0.3-0.5-0.6-0.6c-2.6-1.7-5.6-2.6-8.7-2.4c-1.5,0-3,0.2-4.4,0.6&#10;&#9;&#9;c-0.3,0.1-0.7,0.2-1,0.3c-1.2,0.4-2.7,1-4.1,0.2c-0.4-0.2-0.8-0.6-0.9-1.1c-0.2-0.7,0.1-1.4,1-2c3-2.4,6.6-4,10.4-4.6&#10;&#9;&#9;c2.3-0.3,4.7-0.3,7.1,0.1c1.3,0.1,2.7,0.3,4,0.3c5.1,0.1,10.3-1,15.3-2c0.4-0.1,0.8,0.2,0.8,0.5c0.1,0.4-0.2,0.8-0.5,0.8&#10;&#9;&#9;c0,0,0,0,0,0c-5.1,1-10.3,2.1-15.6,2c-1.4,0-2.8-0.2-4.2-0.3c-2.2-0.4-4.4-0.4-6.6-0.1c-3.6,0.6-6.9,2.1-9.8,4.4&#10;&#9;&#9;c-0.4,0.3-0.5,0.5-0.5,0.5l0,0c0,0,0,0.1,0.2,0.2c0.9,0.5,1.9,0.1,3-0.3c0.4-0.1,0.7-0.2,1.1-0.4c1.5-0.4,3.1-0.6,4.7-0.6&#10;&#9;&#9;c3.4-0.2,6.8,0.8,9.6,2.7c0.5,0.3,0.9,0.9,1.1,1.5c0.1,0.7-0.1,1.5-0.7,2c-0.4,0.4-1,0.7-1.5,0.9l-4.4,1.9c3.1,0.8,6.3-0.3,9.4-1.5&#10;&#9;&#9;c1.4-0.5,2.8-1,4.3-1.3c4.8-1.1,9.7-1.8,14.6-2.2c-1.6-3.2-2-6.8-1.2-10.2c0.1-0.4,0.5-0.6,0.9-0.5c0.4,0.1,0.6,0.5,0.5,0.9&#10;&#9;&#9;c-0.9,3.4-0.3,7.1,1.5,10.1c0.1,0.2,0.1,0.5,0,0.7c-0.1,0.2-0.3,0.4-0.6,0.4c-5.2,0.3-10.4,1.1-15.5,2.2c-1.4,0.4-2.8,0.8-4.1,1.3&#10;&#9;&#9;C174.6,297.6,172,298.2,169.4,298.4z"/>
	<path class="st1_office-work-28" d="M162.6,407.2c-0.2,0.6-1.7,3.4-3.8,4.4s-26.8,6.4-26.4,10s2.9,4.3,9.5,4.5c8.8,0.3,36.8-2,36.8-2v-15&#10;&#9;&#9;L162.6,407.2z"/>
	<path class="st2_office-work-28" d="M143.9,426.9c-0.7,0-1.4,0-2,0c-6.7-0.2-9.7-1.1-10.2-5.2c-0.3-2.8,7.5-5.4,22-9.3c2.3-0.6,4.4-1.2,4.8-1.4&#10;&#9;&#9;c1.8-0.8,3.2-3.5,3.4-4c0.1-0.3,0.4-0.5,0.8-0.5l16.1,1.9c0.4,0,0.6,0.3,0.6,0.7v14.9c0,0.4-0.3,0.7-0.6,0.7&#10;&#9;&#9;C177.7,424.9,154.1,426.9,143.9,426.9z M163,408c-0.8,1.8-2.2,3.3-3.9,4.2c-0.5,0.2-2.1,0.7-5,1.5c-14,3.8-21.1,6.4-20.9,7.8&#10;&#9;&#9;c0.3,2.9,2.1,3.7,8.8,3.9c7.9,0.3,31.8-1.6,36.1-2v-13.6L163,408z"/>
	<path class="st1_office-work-28" d="M228.6,410.7c0,0-26.6,9.1-27.8,10.9s0.9,3.8,8,4.4s37.4-1,37.4-1s0.4-8.2-1.5-12.4S228.6,410.7,228.6,410.7z"/>
	<path class="st2_office-work-28" d="M213.9,426.8c-2.2,0-3.9,0-5.1-0.1c-4.9-0.4-7.9-1.6-8.7-3.2c-0.4-0.7-0.3-1.6,0.2-2.3&#10;&#9;&#9;c1.2-1.8,21.8-9,28.1-11.2h0.1c1.5-0.2,14.8-2.2,16.9,2.3c2,4.3,1.6,12.4,1.6,12.7c0,0.4-0.3,0.7-0.7,0.7&#10;&#9;&#9;C245.2,425.7,224.7,426.8,213.9,426.8z M228.8,411.4c-12.5,4.3-26.4,9.5-27.4,10.6c-0.2,0.2-0.2,0.6-0.1,0.8c0.4,0.9,2.6,2,7.5,2.5&#10;&#9;&#9;c6.4,0.6,32.2-0.8,36.7-1c0-2,0-8.1-1.5-11.4C242.8,410.2,234.1,410.5,228.8,411.4L228.8,411.4z"/>
	<path class="st3_office-work-28 targetColor" d="M304.6,320c0,0,21.7-54.3,19.5-81.1s-19.8-28.4-25.9-28.8s-38.3-4.7-50.1,9.7s-8.7,83.9-8.7,83.9L304.6,320z" style="fill: rgb(104, 225, 253);"/>
	<path class="st2_office-work-28" d="M228.6,308.2c0,0-23.1-3.9-33,4.9S160.5,408,160.5,408s5.3,8.4,19.4,4.2l56.9-90.7&#10;&#9;&#9;C236.7,321.5,240.9,307.9,228.6,308.2z"/>
	<path class="st2_office-work-28" d="M172.4,414.1c-8.8,0-12.4-5.4-12.5-5.7c-0.1-0.2-0.2-0.4-0.1-0.6c1-3.5,25.4-86.5,35.4-95.3s31.8-5.4,33.5-5.1&#10;&#9;&#9;c3.5-0.1,6.2,1,7.8,3.1c3.2,4.2,1.1,10.9,1.1,11.2c0,0.1,0,0.1-0.1,0.2l-56.9,90.7c-0.1,0.2-0.3,0.3-0.4,0.3&#10;&#9;&#9;C177.6,413.7,175,414.1,172.4,414.1z M161.4,407.9c1,1.4,6.2,7,18,3.6l56.6-90.3c0.2-0.8,1.7-6.4-0.9-9.7c-1.3-1.7-3.5-2.5-6.6-2.5&#10;&#9;&#9;h-0.1c-0.2,0-22.9-3.7-32.3,4.7C186.9,321.9,163.1,401.8,161.4,407.9L161.4,407.9z"/>
	<path class="st2_office-work-28" d="M304.6,320c0,0-42.5-18.6-55.4-20.5c0,0-23.9-4.6-33.4,12.9s12.7,98.3,12.7,98.3c5.2,3.1,11.3,4.1,17.2,3&#10;&#9;&#9;l7.3-78.8C253.1,334.9,306.2,338.6,304.6,320z"/>
	<path class="st2_office-work-28" d="M241.2,414.9c-4.6,0-9.1-1.2-13.1-3.6c-0.2-0.1-0.3-0.3-0.3-0.4c-0.9-3.3-22.2-81.3-12.7-98.8&#10;&#9;&#9;c9.6-17.8,34-13.3,34.2-13.3c12.8,1.9,53.8,19.8,55.6,20.5c0.3,0.1,0.4,0.4,0.5,0.6c0.3,2.8-0.8,5.6-2.8,7.5&#10;&#9;&#9;c-10,10.1-43.1,8.6-48.8,8.2l-7.2,78.1c0,0.3-0.3,0.6-0.6,0.7C244.4,414.8,242.8,414.9,241.2,414.9z M229.2,410.1&#10;&#9;&#9;c4.8,2.7,10.4,3.7,15.9,2.9l7.2-78.2c0-0.4,0.4-0.7,0.8-0.7c0.4,0,38.2,2.5,48.3-7.7c1.6-1.5,2.5-3.6,2.4-5.9&#10;&#9;&#9;c-4.5-2-42.8-18.5-54.8-20.2c-0.3,0-23.5-4.2-32.6,12.5C207.6,329.2,227.8,404.8,229.2,410.1L229.2,410.1z"/>
	<path class="st3_office-work-28 targetColor" d="M248.1,219.8c0,0-8.7,16.7-13.8,25.3S218,266.1,218,266.1s-39.4,14-39.7,14.8s3.7,14,3.7,14s41.4-3,48.2-6.2&#10;&#9;&#9;s20.7-19.1,20.7-19.1L248.1,219.8z" style="fill: rgb(104, 225, 253);"/>
	<path class="st1_office-work-28" d="M292.3,164.9c-1.1-1.1-2.6-1.7-4.1-1.7c-1.5,0.1-3,1.5-2.7,3c-2.4-3.7-6.9-5.5-11.3-5.7s-8.6,1.2-12.7,2.8&#10;&#9;&#9;s-8,3.5-12.3,4.5c1,6.4,4.4,12.2,9.6,16.2c2.4,1.7,5,3.2,7.7,4.5l5.7,2.8c5.8,2.9,13.7,5.4,20,2.3c5.5-2.7,6.5-12.4,5.8-17.7&#10;&#9;&#9;C297.5,171.6,295.5,167.7,292.3,164.9z"/>
	<path class="st2_office-work-28" d="M285.6,195.8c-4.9,0-9.9-1.9-13.8-3.8l-5.7-2.8c-2.7-1.3-5.4-2.8-7.9-4.5c-5.4-4.1-8.9-10.1-9.9-16.7&#10;&#9;&#9;c-0.1-0.4,0.2-0.8,0.6-0.9c3.2-0.8,6.4-1.9,9.4-3.3c0.9-0.4,1.9-0.8,2.8-1.1c3.8-1.5,8.3-3,13-2.9c4.1,0,8,1.7,10.8,4.6&#10;&#9;&#9;c0.1-0.2,0.2-0.3,0.3-0.4c0.7-0.9,1.7-1.4,2.8-1.5c1.7,0,3.4,0.7,4.6,1.9l0,0c3.3,2.9,5.5,7,6,11.4c0.8,6-0.5,15.7-6.2,18.5&#10;&#9;&#9;C290.4,195.3,288,195.8,285.6,195.8z M250.1,168.4c1.1,6,4.4,11.3,9.2,15c2.4,1.7,4.9,3.2,7.6,4.4l5.7,2.8&#10;&#9;&#9;c5.4,2.7,13.2,5.3,19.3,2.3c4.9-2.4,6.1-11.5,5.4-16.9c-0.5-4-2.4-7.8-5.4-10.5l0,0c-0.9-0.9-2.2-1.5-3.5-1.5&#10;&#9;&#9;c-0.7,0.1-1.3,0.4-1.7,0.9c-0.3,0.3-0.4,0.7-0.3,1.1c0.1,0.4-0.1,0.7-0.5,0.9c-0.3,0.1-0.7,0-0.9-0.3c-2-3.1-6.1-5.2-10.6-5.3&#10;&#9;&#9;c-4.4-0.1-8.7,1.3-12.4,2.8c-0.9,0.4-1.9,0.8-2.8,1.1C256.1,166.4,253.1,167.5,250.1,168.4z"/>
	<path class="st1_office-work-28" d="M266.3,208v14.5c0,0,3.4,8,12.9,5.6s10.6-9.2,10.6-9.2l-0.4-26.8c0,0-7.1-3.7-5.2-19&#10;&#9;&#9;c-7.7,3.4-16.2,4.7-24.6,3.7c0,0-4.1,16.6-2.9,24S266.3,208,266.3,208z"/>
	<path class="st2_office-work-28" d="M275.8,229.2c-4.3-0.1-8.3-2.6-10.2-6.5c0-0.1-0.1-0.2-0.1-0.3v-13.7c-2.2-0.2-8.5-1.4-9.6-7.9&#10;&#9;&#9;c-1.2-7.4,2.7-23.6,2.9-24.3c0.1-0.4,0.5-0.6,0.9-0.6c8.3,1,16.6-0.3,24.2-3.6c0.3-0.1,0.6-0.1,0.8,0.1c0.2,0.2,0.4,0.4,0.3,0.7&#10;&#9;&#9;c-1.8,14.5,4.7,18.2,4.8,18.2c0.3,0.1,0.4,0.4,0.4,0.7l0.4,26.8c-0.1,0.4-1.4,7.5-11.2,10C278.2,229.1,277,229.2,275.8,229.2z&#10;&#9;&#9; M267.1,222.2c0.5,1,3.8,7,11.9,5c8.8-2.2,10-8.3,10.1-8.6l-0.4-26.2c-1.5-1-6.5-5.5-5.4-18.2c-7.3,3-15.3,4.1-23.1,3.3&#10;&#9;&#9;c-0.7,3.1-3.8,16.7-2.7,23c1.1,6.6,8.6,6.6,8.9,6.6c0.2,0,0.4,0.1,0.5,0.2c0.1,0.1,0.2,0.4,0.2,0.6V222.2z"/>
	<path class="st1_office-work-28" d="M283.8,191.6c0.3-1.3,1-2.5,2.1-3.4c1-0.8,2.1-1.3,3.3-1.7c0.6-0.3,1.3-0.4,2-0.4c0.5,0.1,0.9,0.2,1.4,0.5&#10;&#9;&#9;c1,0.5,1.9,1.3,2.3,2.4c0.3,0.9,0.3,1.8,0.2,2.7c-0.1,1-0.3,2-0.7,2.9c-1.6,3.8-6,5.6-9.9,4c0,0,0,0,0,0"/>
	<path class="st2_office-work-28" d="M287.4,200c-1.1,0-2.2-0.2-3.3-0.7c-0.4-0.2-0.6-0.6-0.4-1c0.2-0.4,0.6-0.6,1-0.4c3.4,1.5,7.4-0.1,8.9-3.6&#10;&#9;&#9;c0,0,0,0,0-0.1c0.3-0.9,0.5-1.8,0.6-2.7c0.1-0.8,0.1-1.6-0.1-2.3c-0.4-0.9-1.1-1.6-2-2c-0.3-0.2-0.7-0.3-1.1-0.4&#10;&#9;&#9;c-0.6,0-1.1,0.1-1.6,0.3c-1.1,0.3-2.2,0.9-3.1,1.6c-0.9,0.8-1.5,1.8-1.8,2.9c-0.1,0.4-0.6,0.6-1,0.5c-0.3-0.1-0.6-0.5-0.5-0.8&#10;&#9;&#9;c0.3-1.5,1.2-2.8,2.3-3.8c1.1-0.8,2.3-1.4,3.5-1.8c0.7-0.3,1.5-0.5,2.3-0.4c0.6,0.1,1.1,0.3,1.6,0.6c1.2,0.6,2.1,1.6,2.7,2.8&#10;&#9;&#9;c0.3,1,0.4,2.1,0.2,3.1c-0.1,1.1-0.4,2.1-0.8,3.1c-0.9,2-2.5,3.7-4.5,4.5C289.5,199.8,288.4,200,287.4,200z"/>
	<path class="st1_office-work-28" d="M270.5,185.9c0,0-5.1,7.3-4,8.6s4.5,0.5,4.5,0.5"/>
	<path class="st2_office-work-28" d="M268.9,196.1c-1.1,0.1-2.2-0.3-3.1-1c-1.3-1.5,1.4-6,4-9.6c0.3-0.3,0.8-0.4,1.1-0.1c0.3,0.2,0.4,0.7,0.2,1&#10;&#9;&#9;c-2.4,3.4-4.3,7-4,7.7c0.6,0.7,2.8,0.5,3.7,0.2c0.4-0.1,0.8,0.2,0.9,0.6c0.1,0.4-0.2,0.8-0.6,0.9&#10;&#9;&#9;C270.4,196,269.7,196.1,268.9,196.1z"/>
	
		<ellipse transform="matrix(0.9981 -6.157115e-02 6.157115e-02 0.9981 -10.8972 17.375)" class="st2_office-work-28" cx="276.5" cy="185.5" rx="1.2" ry="1.7"/>
	<ellipse transform="matrix(0.2351 -0.972 0.972 0.2351 22.4528 399.1119)" class="st2_office-work-28" cx="264.8" cy="185.3" rx="1.7" ry="1.2"/>
	<path class="st2_office-work-28" d="M271.2,203.6c-4-0.1-8-1.4-11.2-3.8c-0.3-0.3-0.4-0.8-0.1-1.1c0.3-0.3,0.8-0.4,1.1-0.1l0,0&#10;&#9;&#9;c0.1,0.1,7.9,6,16.7,2c0.4-0.2,0.8,0,1,0.4c0.2,0.4,0,0.8-0.4,1C276.1,203.1,273.7,203.6,271.2,203.6z"/>
	<path class="st2_office-work-28" d="M260.5,194.1c-5.1,0-9.3-4.2-9.3-9.3c0-5.1,4.2-9.3,9.3-9.3c4.5,0,8.4,3.3,9.2,7.7l0,0&#10;&#9;&#9;c0.9,5.1-2.5,9.9-7.6,10.8c0,0,0,0,0,0C261.6,194,261,194.1,260.5,194.1z M260.5,177c-0.5,0-0.9,0-1.4,0.1c-4.2,0.8-7,4.8-6.3,9&#10;&#9;&#9;c0.4,2,1.5,3.8,3.2,5c3.5,2.5,8.3,1.6,10.8-1.9c0,0,0,0,0,0c2.5-3.5,1.6-8.4-1.9-10.8C263.6,177.5,262.1,177,260.5,177L260.5,177z"/>
	<path class="st2_office-work-28" d="M278.4,193.4c-5.1,0-9.3-4.2-9.3-9.3c0-4.5,3.3-8.4,7.7-9.2c5.1-1,9.9,2.4,10.9,7.4s-2.4,9.9-7.4,10.9&#10;&#9;&#9;c-0.1,0-0.2,0-0.2,0C279.5,193.3,278.9,193.4,278.4,193.4z M278.4,176.3c-4.3,0-7.8,3.5-7.8,7.7c0,4.3,3.5,7.8,7.7,7.8&#10;&#9;&#9;c4.3,0,7.8-3.5,7.8-7.7c0-0.5,0-0.9-0.1-1.3l0,0C285.4,179,282.2,176.3,278.4,176.3L278.4,176.3z"/>
	<path class="st2_office-work-28" d="M266.3,208c0,0,9,2.1,14.3-1c0,0-5.9,12.1-14.3,10.9V208z"/>
	<path class="st2_office-work-28" d="M267.5,218.8c-0.5,0-0.9,0-1.4-0.1c-0.4-0.1-0.7-0.4-0.7-0.8V208c0-0.2,0.1-0.5,0.3-0.6&#10;&#9;&#9;c0.2-0.1,0.4-0.2,0.7-0.1c0.1,0,8.8,2,13.8-0.9c0.4-0.2,0.9-0.1,1.1,0.3c0.1,0.2,0.1,0.5,0,0.7&#10;&#9;&#9;C281.1,207.8,275.7,218.8,267.5,218.8z M267.1,217.2c5.5,0.3,9.8-5.4,11.7-8.6c-4.3,1.4-9.6,0.7-11.7,0.3V217.2z"/>
	<path class="st3_office-work-28 targetColor" d="M315.4,216.6c7.4,1.3,37.2,70.3,27,78.2c-15.9,12.3-71.4-0.1-71.4-0.1l4.5-21.4c0,0,35.7,1,36.2-6.3&#10;&#9;&#9;s-20.7-41.2-18-46.3S315.4,216.6,315.4,216.6z" style="fill: rgb(104, 225, 253);"/>
	<path class="st1_office-work-28" d="M216.7,354.1c-0.3,0-0.6-0.2-0.7-0.5c-7.5-18,1.6-44.5,1.9-45.6c0.1-0.4,0.6-0.6,1-0.5c0,0,0,0,0,0&#10;&#9;&#9;c0.4,0.1,0.6,0.6,0.5,1c0,0,0,0,0,0c-0.1,0.3-9.2,27.1-2,44.5c0.2,0.4,0,0.8-0.4,1C216.9,354.1,216.8,354.1,216.7,354.1z"/>
	<path class="st2_office-work-28" d="M297.9,301.8h-0.1l-17.3-3c-0.4-0.1-0.6-0.4-0.6-0.8l-0.5-20.7c0-0.4,0.3-0.8,0.7-0.8l31.2-3.2l-13.7-47.3&#10;&#9;&#9;c-0.1-0.4,0.1-0.8,0.5-1s0.8,0.1,1,0.5l14,48.2c0.1,0.4-0.1,0.8-0.5,1c0,0-0.1,0-0.1,0l-31.4,3.2l0.5,19.4l16.7,2.9&#10;&#9;&#9;c0.4,0.1,0.7,0.5,0.6,0.9C298.6,301.5,298.3,301.8,297.9,301.8L297.9,301.8z"/>
	<path class="st1_office-work-28" d="M279.3,280.4c-5.9,0.4-11.9,0.1-17.7-0.9c-4.5-0.8-8.5-1.8-13.2-1.5c-5.9,0.3-11.7,1.6-17.1,3.9&#10;&#9;&#9;c-0.2,0.1-0.4,0.2-0.6,0.4c-0.5,0.7,0.7,1.4,1.6,1.5c2.4,0.1,4.7-0.2,7-0.9c-5.6,2.1-10.9,4.9-15.8,8.4c-0.6,0.4-1.2,1-0.9,1.6&#10;&#9;&#9;s1.4,0.5,2.1,0.2l12.8-5.8c-3.3,1.3-6.4,3.2-9.1,5.5c-0.4,0.3-0.8,0.8-0.7,1.3c0.2,0.9,1.5,0.7,2.2,0.3c3.9-1.9,7.5-4.2,11-6.8&#10;&#9;&#9;l-7.9,6c-0.1,0.6,0.6,1.2,1.2,1.2c0.7,0,1.3-0.3,1.8-0.6l8.8-5.1l-5.4,3.9c-0.9,0.6-1.8,1.6-1.4,2.5c0.5,1.1,2.2,0.8,3.3,0.3&#10;&#9;&#9;c4.5-2,9.2-3.4,14.1-4.3c1.8-0.4,3.4-1.1,5.2-1.1c2.6,0.1,5.5,1.2,8,1.7c4,0.9,8,1.8,11.9,2.7"/>
	<path class="st2_office-work-28" d="M239.5,297c-0.3,0-0.7,0-1-0.2c-0.5-0.2-0.9-0.5-1.1-1c-0.2-0.5-0.2-1,0-1.5l-0.8,0.5&#10;&#9;&#9;c-0.7,0.4-1.4,0.7-2.2,0.7c-0.6,0-1.1-0.3-1.5-0.8c-0.2-0.3-0.4-0.6-0.4-0.9c-0.7,0.4-1.4,0.8-2.2,1.1c-0.8,0.4-1.7,0.5-2.5,0.2&#10;&#9;&#9;c-0.4-0.2-0.7-0.6-0.8-1c-0.1-0.6,0.1-1.2,0.6-1.6l-2.6,1.2c-0.7,0.4-1.5,0.4-2.2,0.2c-0.4-0.1-0.7-0.4-0.8-0.8&#10;&#9;&#9;c-0.4-0.8,0-1.7,1.1-2.5c3.3-2.4,6.9-4.5,10.6-6.2c-0.4,0-0.9,0-1.4,0c-0.9,0-1.8-0.5-2.3-1.2c-0.2-0.4-0.2-1,0.1-1.4&#10;&#9;&#9;c0.2-0.3,0.5-0.5,0.9-0.6c5.5-2.4,11.4-3.7,17.3-4c4-0.1,7.9,0.3,11.8,1.2l1.6,0.3c5.8,0.9,11.7,1.2,17.6,0.9&#10;&#9;&#9;c0.4,0,0.7,0.3,0.7,0.7c0,0.4-0.3,0.7-0.7,0.7c-6,0.4-12,0.1-17.9-0.9l-1.6-0.3c-3.8-0.9-7.6-1.3-11.5-1.2&#10;&#9;&#9;c-5.8,0.3-11.5,1.6-16.8,3.9c-0.1,0-0.2,0.1-0.3,0.1c0.3,0.2,0.7,0.3,1.1,0.3c2.3,0.1,4.6-0.2,6.8-0.9c0.4-0.1,0.8,0.1,0.9,0.5&#10;&#9;&#9;c0.1,0.4-0.1,0.8-0.4,0.9c-5.6,2.1-10.8,4.9-15.6,8.3c-0.5,0.4-0.7,0.7-0.6,0.8c0.4,0.1,0.8,0,1.2-0.2l9.9-4.5&#10;&#9;&#9;c0.9-0.5,1.9-0.9,2.9-1.3c0.4-0.2,0.8,0,0.9,0.4s0,0.8-0.4,0.9l0,0l-2.9,1.3c-2.2,1.1-4.2,2.5-6,4.1c-0.5,0.4-0.5,0.6-0.5,0.6&#10;&#9;&#9;c0.4,0.1,0.9,0,1.2-0.2c3.9-1.9,7.5-4.2,11-6.7c0.3-0.2,0.8-0.2,1,0.1c0.2,0.3,0.2,0.8-0.1,1l0,0l-7.5,5.8c0.1,0.1,0.3,0.2,0.5,0.2&#10;&#9;&#9;c0.5,0,1-0.2,1.4-0.5l8.8-5.1c0.3-0.2,0.8-0.1,1,0.2c0.2,0.3,0.1,0.8-0.2,1l-5.5,3.8c-0.7,0.5-1.4,1.2-1.2,1.7&#10;&#9;&#9;c0.1,0.1,0.2,0.2,0.3,0.2c0.7,0.1,1.5,0,2.1-0.3c4.6-2,9.3-3.5,14.2-4.4c0.6-0.1,1.1-0.3,1.7-0.4c1.2-0.4,2.4-0.6,3.7-0.6&#10;&#9;&#9;c1.9,0.2,3.9,0.5,5.7,1.1c0.8,0.2,1.6,0.5,2.4,0.6c4,0.9,7.9,1.8,11.9,2.7c0.4,0.1,0.6,0.5,0.5,0.9c-0.1,0.4-0.5,0.6-0.9,0.5&#10;&#9;&#9;c-4-0.9-7.9-1.8-11.9-2.7c-0.8-0.2-1.6-0.4-2.5-0.6c-1.7-0.6-3.6-0.9-5.4-1.1c-1.1,0-2.2,0.2-3.3,0.6c-0.6,0.2-1.2,0.3-1.8,0.5&#10;&#9;&#9;c-4.8,0.9-9.5,2.4-13.9,4.3C241,296.8,240.3,297,239.5,297z"/>
	<path class="st1_office-work-28" d="M255.6,228.5c0,0-6.5,26.6-12.4,45.5"/>
	<path class="st2_office-work-28" d="M243.2,274.7c-0.1,0-0.1,0-0.2,0c-0.4-0.1-0.6-0.5-0.5-0.9c0,0,0,0,0,0c5.8-18.7,12.3-45.3,12.4-45.5&#10;&#9;&#9;c0.1-0.4,0.5-0.6,0.9-0.5c0.4,0.1,0.6,0.5,0.5,0.9c-0.1,0.3-6.6,26.9-12.4,45.6C243.8,274.6,243.5,274.7,243.2,274.7z"/>
	<path class="st1_office-work-28" d="M238.6,300.4H181c-1.1-1.8-0.7-4.2,1-5.5h55.4L238.6,300.4z"/>
	<path class="st2_office-work-28" d="M238.6,301.1H181c-0.2,0-0.5-0.1-0.6-0.3c-1.4-2.1-0.8-5,1.2-6.5c0.1-0.1,0.3-0.1,0.4-0.1h55.4&#10;&#9;&#9;c0.3,0,0.6,0.2,0.7,0.6l1.1,5.5c0.1,0.4-0.2,0.8-0.6,0.8C238.7,301.1,238.6,301.2,238.6,301.1L238.6,301.1z M181.4,299.7h56.3&#10;&#9;&#9;l-0.8-4.1h-54.6C181.1,296.6,180.7,298.3,181.4,299.7L181.4,299.7z"/>
	<path class="st1_office-work-28" d="M258.9,298.5c0,0-20-4.9-21.6-3.4s-1,5.1,1.3,5.3s2.8-2.8,2.8-2.8l17.5,3.5V298.5z"/>
	<path class="st2_office-work-28" d="M258.9,301.8h-0.1l-16.8-3.3c-0.4,1.3-1.4,2.9-3.4,2.7c-1.2-0.1-2.2-1-2.6-2.1c-0.6-1.5-0.2-3.2,0.9-4.5&#10;&#9;&#9;c1.6-1.6,14.6,1.3,22.2,3.2c0.3,0.1,0.5,0.4,0.5,0.7v2.6c0,0.2-0.1,0.4-0.3,0.5C259.3,301.7,259.1,301.8,258.9,301.8z M241.4,296.9&#10;&#9;&#9;h0.1l16.6,3.3V299c-9.2-2.2-19.2-4.1-20.4-3.4c-0.7,0.8-0.8,1.9-0.5,2.9c0.2,0.6,0.7,1.1,1.3,1.2c1.6,0.1,2.1-2.2,2.1-2.2&#10;&#9;&#9;c0-0.2,0.1-0.4,0.3-0.5C241.2,296.9,241.3,296.9,241.4,296.9z"/>
</g>
<g id="desk_office-work-28">
	<polygon class="st1_office-work-28" points="111.3,425.5 99.3,425.5 114.4,308.4 135.9,308.4 &#9;"/>
	<path class="st2_office-work-28" d="M111.3,426.2h-12c-0.2,0-0.4-0.1-0.5-0.2c-0.1-0.2-0.2-0.4-0.2-0.6l15.1-117c0-0.4,0.3-0.6,0.7-0.6H136&#10;&#9;&#9;c0.4,0,0.7,0.3,0.7,0.7c0,0.1,0,0.1,0,0.2l-24.7,117C111.9,425.9,111.6,426.2,111.3,426.2z M100.1,424.7h10.7l24.3-115.6H115&#10;&#9;&#9;L100.1,424.7z"/>
	<polygon class="st1_office-work-28" points="357.8,425.5 369.9,425.5 354.8,308.4 333.2,308.4 &#9;"/>
	<path class="st2_office-work-28" d="M369.9,426.2h-12c-0.3,0-0.6-0.2-0.7-0.6l-24.6-117c-0.1-0.4,0.2-0.8,0.5-0.8c0.1,0,0.1,0,0.2,0h21.6&#10;&#9;&#9;c0.4,0,0.7,0.3,0.7,0.6l15.1,117c0,0.2,0,0.4-0.2,0.6C370.3,426.1,370.1,426.2,369.9,426.2z M358.4,424.7h10.6l-14.9-115.6h-20.1&#10;&#9;&#9;L358.4,424.7z"/>
	<rect x="305.8" y="360.4" class="st1_office-work-28" width="49.3" height="8.9"/>
	<path class="st2_office-work-28" d="M355,369.9h-49.2c-0.4,0-0.7-0.3-0.7-0.7c0,0,0,0,0,0v-8.9c0-0.4,0.3-0.7,0.7-0.7H355c0.4,0,0.7,0.3,0.7,0.7&#10;&#9;&#9;c0,0,0,0,0,0v8.9C355.7,369.6,355.4,369.9,355,369.9L355,369.9z M306.5,368.5h47.8v-7.4h-47.8L306.5,368.5z"/>
	<polygon class="st1_office-work-28" points="312,425.5 324.1,425.5 309,308.4 287.4,308.4 &#9;"/>
	<path class="st2_office-work-28" d="M324.1,426.2H312c-0.3,0-0.6-0.2-0.7-0.6l-24.6-117c0-0.2,0-0.4,0.1-0.6c0.1-0.2,0.3-0.3,0.5-0.3H309&#10;&#9;&#9;c0.4,0,0.7,0.3,0.7,0.6l15.1,117C324.9,425.8,324.6,426.1,324.1,426.2C324.2,426.2,324.1,426.2,324.1,426.2L324.1,426.2z&#10;&#9;&#9; M312.6,424.7h10.7l-14.9-115.6h-20.1L312.6,424.7z"/>
	<rect x="68.4" y="360.4" class="st1_office-work-28" width="49.3" height="8.9"/>
	<path class="st2_office-work-28" d="M117.6,369.9H68.3c-0.4,0-0.7-0.3-0.7-0.7c0,0,0,0,0,0v-8.9c0-0.4,0.3-0.7,0.7-0.7h49.3c0.4,0,0.7,0.3,0.7,0.7&#10;&#9;&#9;v8.9C118.3,369.6,118,369.9,117.6,369.9C117.6,369.9,117.6,369.9,117.6,369.9z M69.1,368.5h47.8v-7.4H69.1L69.1,368.5z"/>
	<polygon class="st1_office-work-28" points="65.5,425.5 53.5,425.5 68.6,308.4 90.2,308.4 &#9;"/>
	<path class="st2_office-work-28" d="M65.5,426.2h-12c-0.2,0-0.4-0.1-0.5-0.2c-0.1-0.2-0.2-0.4-0.2-0.6l15.1-117c0-0.4,0.3-0.6,0.7-0.6h21.6&#10;&#9;&#9;c0.4,0,0.7,0.3,0.7,0.7c0,0,0,0.1,0,0.1l-24.6,117C66.2,425.9,65.9,426.2,65.5,426.2z M54.3,424.7H65l24.3-115.6H69.2L54.3,424.7z"/>
	<rect x="51.3" y="301.1" class="st1_office-work-28" width="325.8" height="12"/>
	<path class="st2_office-work-28" d="M377.1,313.8H51.3c-0.4,0-0.7-0.3-0.7-0.7c0,0,0,0,0,0v-12c0-0.4,0.3-0.7,0.7-0.7c0,0,0,0,0,0h325.8&#10;&#9;&#9;c0.4,0,0.7,0.3,0.7,0.7v12C377.8,313.5,377.5,313.8,377.1,313.8z M52,312.4h324.4v-10.6H52V312.4z"/>
</g>
<g id="clock_office-work-28">
	<circle class="st1_office-work-28" cx="122.3" cy="133.3" r="28.2"/>
	<path class="st0_office-work-28" d="M122.3,162.3c-16,0-29-13-29-29s13-29,29-29s29,13,29,29S138.3,162.3,122.3,162.3L122.3,162.3z M122.3,105.9&#10;&#9;&#9;c-15.1,0-27.4,12.3-27.4,27.4c0,15.1,12.3,27.4,27.4,27.4s27.4-12.3,27.4-27.4C149.7,118.2,137.5,105.9,122.3,105.9z"/>
	<path class="st0_office-work-28" d="M122.3,134.1c-0.1,0-0.2,0-0.3-0.1c-0.3-0.1-0.5-0.4-0.5-0.7v-18.5c0-0.4,0.3-0.8,0.8-0.8&#10;&#9;&#9;c0.4,0,0.8,0.3,0.8,0.8c0,0,0,0,0,0v16.7l7.3-6.7c0.3-0.3,0.8-0.3,1.1,0.1c0.3,0.3,0.3,0.8,0,1.1l-8.6,7.9&#10;&#9;&#9;C122.7,134,122.5,134.1,122.3,134.1z"/>
</g>
<g id="computer_office-work-28">
	<rect x="66.4" y="182" class="st1_office-work-28" width="133.8" height="98"/>
	<path class="st2_office-work-28" d="M200.2,280.6H66.4c-0.4,0-0.7-0.3-0.7-0.7V182c0-0.4,0.3-0.7,0.7-0.7h0h133.8c0.4,0,0.7,0.3,0.7,0.7v0v98&#10;&#9;&#9;C200.9,280.4,200.6,280.6,200.2,280.6z M67.1,279.2h132.4v-96.5H67.1V279.2z"/>
	<polygon class="st2_office-work-28" points="146.7,238.9 146.7,279.9 125.2,279.9 &#9;"/>
	<path class="st2_office-work-28" d="M146.7,280.6h-21.4c-0.2,0-0.5-0.1-0.6-0.3c-0.1-0.2-0.1-0.5,0-0.7l21.4-41c0.2-0.3,0.5-0.4,0.8-0.4&#10;&#9;&#9;c0.3,0.1,0.5,0.4,0.5,0.7v41C147.4,280.3,147.1,280.6,146.7,280.6C146.7,280.6,146.7,280.6,146.7,280.6z M126.4,279.2H146v-37.4&#10;&#9;&#9;L126.4,279.2z"/>
	<path class="st1_office-work-28" d="M119,238.9h27.7l-15.2,58.9h27.8c0.9,0,1.7,0.7,1.7,1.6c0,0.9-0.7,1.7-1.6,1.7c0,0,0,0,0,0H106&#10;&#9;&#9;c-1.2,0-2.2-1-2.2-2.2v-1.1L119,238.9z"/>
	<path class="st2_office-work-28" d="M159.3,301.8H106c-1.6,0-2.9-1.3-2.9-2.9v-1.1c0-0.1,0-0.1,0-0.2l15.2-58.9c0.1-0.3,0.4-0.5,0.7-0.5h27.7&#10;&#9;&#9;c0.4,0,0.7,0.3,0.7,0.7c0,0.1,0,0.1,0,0.2l-14.9,58h26.9c1.3-0.1,2.4,0.9,2.5,2.2c0.1,1.3-0.9,2.4-2.2,2.5&#10;&#9;&#9;C159.5,301.8,159.4,301.8,159.3,301.8z M104.6,297.9v1c0,0.8,0.7,1.5,1.5,1.5c0,0,0,0,0,0h53.3c0.5,0,0.9-0.4,0.9-0.9&#10;&#9;&#9;s-0.4-0.9-0.9-0.9h-27.8c-0.2,0-0.4-0.1-0.6-0.3c-0.1-0.2-0.2-0.4-0.1-0.6l14.9-58h-26.2L104.6,297.9z"/>
	<path class="st2_office-work-28" d="M190.8,274L190.8,274c-0.5,0-0.9-0.4-0.9-0.9v-3.9c0-0.5,0.4-0.9,0.9-0.9l0,0c0.5,0,0.9,0.4,0.9,0.9v3.9&#10;&#9;&#9;C191.7,273.6,191.3,274,190.8,274z"/>
	<path class="st2_office-work-28" d="M190.8,274.7c-0.9,0-1.6-0.7-1.6-1.6v-3.9c0-0.9,0.7-1.6,1.6-1.6c0.9,0,1.6,0.7,1.6,1.6v3.9&#10;&#9;&#9;C192.4,274,191.7,274.7,190.8,274.7L190.8,274.7z M190.8,269c-0.1,0-0.2,0.1-0.2,0.2l0,0v3.9c0,0.2,0.4,0.2,0.4,0v-3.9&#10;&#9;&#9;C191,269.1,190.9,269,190.8,269C190.8,269,190.8,269,190.8,269L190.8,269z"/>
	<path class="st2_office-work-28" d="M186,274L186,274c-0.5,0-0.9-0.4-0.9-0.9v-3.9c0-0.5,0.4-0.9,0.9-0.9l0,0c0.5,0,0.9,0.4,0.9,0.9v3.9&#10;&#9;&#9;C186.9,273.6,186.5,274,186,274z"/>
	<path class="st2_office-work-28" d="M186.1,274.7c-0.9,0-1.6-0.7-1.6-1.6v-3.9c0.1-0.9,0.9-1.6,1.8-1.5c0.8,0.1,1.4,0.7,1.5,1.5v3.9&#10;&#9;&#9;C187.7,274,186.9,274.7,186.1,274.7z M186.1,269c-0.1,0-0.2,0.1-0.2,0.2l0,0v3.9c0,0.2,0.4,0.2,0.4,0v-3.9&#10;&#9;&#9;C186.3,269.1,186.2,269,186.1,269C186.1,269,186.1,269,186.1,269L186.1,269z"/>
	<path class="st2_office-work-28" d="M181.3,274L181.3,274c-0.5,0-0.9-0.4-0.9-0.9v-3.9c0-0.5,0.4-0.9,0.9-0.9l0,0c0.5,0,0.9,0.4,0.9,0.9v3.9&#10;&#9;&#9;C182.2,273.6,181.8,274,181.3,274z"/>
	<path class="st2_office-work-28" d="M181.3,274.7c-0.9,0-1.6-0.7-1.6-1.6v-3.9c0-0.9,0.7-1.6,1.6-1.6c0.9,0,1.6,0.7,1.6,1.6v3.9&#10;&#9;&#9;C182.9,274,182.2,274.7,181.3,274.7L181.3,274.7z M181.3,269c-0.1,0-0.2,0.1-0.2,0.2l0,0v3.9c0,0.2,0.4,0.2,0.4,0v-3.9&#10;&#9;&#9;C181.5,269.1,181.4,269,181.3,269C181.3,269,181.3,269,181.3,269L181.3,269z"/>
	<path class="st2_office-work-28" d="M176.5,274L176.5,274c-0.5,0-0.9-0.4-0.9-0.9v-3.9c0-0.5,0.4-0.9,0.9-0.9l0,0c0.5,0,0.9,0.4,0.9,0.9v3.9&#10;&#9;&#9;C177.4,273.6,177,274,176.5,274z"/>
	<path class="st2_office-work-28" d="M176.5,274.7c-0.9,0-1.6-0.7-1.6-1.6v-3.9c0.1-0.9,0.9-1.6,1.8-1.5c0.8,0.1,1.4,0.7,1.5,1.5v3.9&#10;&#9;&#9;C178.2,274,177.4,274.7,176.5,274.7z M176.5,269c-0.1,0-0.2,0.1-0.2,0.2l0,0v3.9c0,0.2,0.4,0.2,0.4,0v-3.9&#10;&#9;&#9;C176.8,269.1,176.7,269,176.5,269C176.6,269,176.6,269,176.5,269L176.5,269z"/>
	<path class="st2_office-work-28" d="M171.8,274L171.8,274c-0.5,0-0.9-0.4-0.9-0.9v-3.9c0-0.5,0.4-0.9,0.9-0.9l0,0c0.5,0,0.9,0.4,0.9,0.9v3.9&#10;&#9;&#9;C172.7,273.6,172.3,274,171.8,274z"/>
	<path class="st2_office-work-28" d="M171.8,274.7c-0.9,0-1.6-0.7-1.6-1.6v-3.9c0-0.9,0.7-1.6,1.6-1.6c0.9,0,1.6,0.7,1.6,1.6v3.9&#10;&#9;&#9;C173.4,274,172.7,274.7,171.8,274.7z M171.8,269c-0.1,0-0.2,0.1-0.2,0.2l0,0v3.9c0,0.2,0.4,0.2,0.4,0v-3.9&#10;&#9;&#9;C172,269.1,171.9,269,171.8,269C171.8,269,171.8,269,171.8,269L171.8,269z"/>
	<path class="st2_office-work-28" d="M167,274L167,274c-0.5,0-0.9-0.4-0.9-0.9v-3.9c0-0.5,0.4-0.9,0.9-0.9l0,0c0.5,0,0.9,0.4,0.9,0.9v3.9&#10;&#9;&#9;C167.9,273.6,167.5,274,167,274z"/>
	<path class="st2_office-work-28" d="M167,274.7c-0.9,0-1.6-0.7-1.6-1.6v-3.9c0.1-0.9,0.9-1.6,1.8-1.5c0.8,0.1,1.4,0.7,1.5,1.5v3.9&#10;&#9;&#9;C168.6,274,167.9,274.7,167,274.7z M167,269c-0.1,0-0.2,0.1-0.2,0.2l0,0v3.9c0,0.2,0.4,0.2,0.4,0v-3.9&#10;&#9;&#9;C167.2,269.1,167.1,269,167,269C167,269,167,269,167,269L167,269z"/>
</g>
</svg>