<svg width="29" height="29" viewBox="0 0 29 29" fill="none" xmlns="http://www.w3.org/2000/svg">
<rect width="29" height="29" rx="14.5" fill="#272D33"/>
<path d="M19.7996 11.8618C19.608 11.8002 19.4148 11.7432 19.2202 11.6908C19.2529 11.5656 19.283 11.442 19.3097 11.3206C19.7483 9.32638 19.4616 7.7198 18.4822 7.19084C17.5432 6.68374 16.0075 7.21251 14.4565 8.47676C14.3037 8.60158 14.1542 8.73 14.0083 8.86189C13.9106 8.77419 13.8112 8.68819 13.7101 8.60393C12.0846 7.25215 10.4553 6.68243 9.47701 7.2129C8.53883 7.72158 8.26102 9.23188 8.6559 11.1218C8.69518 11.309 8.73954 11.4952 8.78893 11.6803C8.5583 11.7417 8.33577 11.807 8.12279 11.8766C6.21704 12.4989 5 13.4742 5 14.4858C5 15.5306 6.30655 16.5786 8.29147 17.2141C8.45239 17.2654 8.61465 17.3129 8.7781 17.3566C8.72502 17.556 8.67789 17.7566 8.63677 17.9584C8.26032 19.8156 8.5543 21.2902 9.48995 21.7956C10.4563 22.3176 12.0783 21.7812 13.6576 20.4881C13.7856 20.3829 13.9109 20.2748 14.0332 20.1638C14.1912 20.3067 14.3535 20.4453 14.5197 20.5797C16.0496 21.8126 17.5605 22.3105 18.4952 21.8037C19.4607 21.2802 19.7745 19.6961 19.3671 17.7688C19.335 17.6178 19.299 17.4675 19.2592 17.3182C19.3731 17.2866 19.4849 17.254 19.5939 17.2202C21.6574 16.5799 23 15.5446 23 14.4858C23 13.4705 21.7437 12.4886 19.7996 11.8618ZM19.352 16.5366C19.2536 16.5671 19.1526 16.5965 19.0497 16.6252C18.8219 15.9497 18.5145 15.2314 18.1382 14.4893C18.4973 13.7649 18.7929 13.0558 19.0143 12.3847C19.1984 12.4346 19.3771 12.4872 19.5493 12.5428C21.215 13.0799 22.2311 13.8739 22.2311 14.4858C22.2311 15.1375 21.1338 15.9836 19.352 16.5366ZM18.6128 17.9086C18.7929 18.7608 18.8186 19.5314 18.6993 20.1337C18.5921 20.675 18.3765 21.0359 18.1099 21.1804C17.5427 21.488 16.3296 21.0882 15.0213 20.0337C14.8666 19.9088 14.7157 19.7799 14.5687 19.6471C15.0759 19.1276 15.5828 18.5236 16.0775 17.8528C16.9477 17.7805 17.7698 17.6622 18.5153 17.5008C18.5512 17.636 18.5837 17.772 18.6128 17.9086ZM11.1366 21.1273C10.5824 21.3105 10.141 21.3158 9.87413 21.1717C9.30636 20.865 9.07032 19.681 9.39228 18.0928C9.43055 17.9051 9.47437 17.7185 9.52369 17.5331C10.261 17.6859 11.0771 17.7957 11.9493 17.862C12.4474 18.5183 12.9689 19.1217 13.4945 19.65C13.3828 19.7512 13.2685 19.8498 13.1516 19.9458C12.4532 20.5176 11.7534 20.9232 11.1366 21.1273ZM8.54023 16.5326C7.66252 16.2516 6.93767 15.8864 6.44084 15.4879C5.99436 15.1298 5.76901 14.7743 5.76901 14.4858C5.76901 13.8719 6.74614 13.0888 8.37591 12.5567C8.5737 12.4921 8.7807 12.4312 8.99551 12.374C9.22079 13.0603 9.51624 13.7778 9.8728 14.5033C9.5116 15.2396 9.21193 15.9686 8.98447 16.6629C8.83527 16.6229 8.68715 16.5794 8.54023 16.5326ZM9.41056 10.9835C9.07229 9.36425 9.29694 8.1428 9.86232 7.83624C10.4645 7.50972 11.7961 7.97526 13.1996 9.14251C13.2911 9.2188 13.3811 9.29663 13.4696 9.37597C12.9466 9.90197 12.4299 10.5008 11.9363 11.1533C11.0897 11.2268 10.2793 11.3448 9.53431 11.5029C9.48841 11.3308 9.44715 11.1576 9.41056 10.9835ZM17.175 12.7793C16.999 12.4946 16.8165 12.2135 16.6276 11.9362C17.2019 12.0042 17.7522 12.0945 18.2689 12.2049C18.1138 12.6706 17.9204 13.1575 17.6928 13.6567C17.5264 13.361 17.3538 13.0685 17.175 12.7793ZM14.0086 9.89077C14.3633 10.2507 14.7185 10.6525 15.0679 11.0884C14.3592 11.0571 13.6492 11.057 12.9405 11.0881C13.2902 10.6561 13.6484 10.2548 14.0086 9.89077ZM10.822 12.7842C10.6454 13.0711 10.476 13.3617 10.3139 13.656C10.09 13.1586 9.89839 12.6695 9.74195 12.1971C10.2555 12.0895 10.8032 12.0016 11.3738 11.9348C11.1828 12.2138 10.9988 12.4971 10.822 12.7842ZM11.3902 17.0881C10.8006 17.0264 10.2448 16.943 9.73133 16.8383C9.89023 16.3575 10.0861 15.858 10.3148 15.3499C10.4775 15.6444 10.6477 15.9353 10.825 16.2222C11.0074 16.5173 11.1963 16.8063 11.3902 17.0881ZM14.0299 19.1316C13.6654 18.7633 13.3019 18.3559 12.9469 17.9177C13.2915 17.9303 13.6429 17.9368 14 17.9368C14.3669 17.9368 14.7296 17.9291 15.0865 17.9142C14.736 18.3603 14.3821 18.7683 14.0299 19.1316ZM17.7001 15.324C17.9407 15.8376 18.1434 16.3345 18.3045 16.8071C17.7826 16.9186 17.2191 17.0084 16.6254 17.0752C16.8156 16.7927 16.9999 16.5067 17.178 16.2173C17.3591 15.9232 17.5331 15.6253 17.7001 15.324ZM16.5119 15.8575C16.2393 16.3011 15.9513 16.7363 15.6484 17.1624C15.0998 17.1988 14.55 17.2169 14 17.2166C13.4398 17.2166 12.895 17.2003 12.3703 17.1684C12.0595 16.7433 11.766 16.3073 11.4905 15.8614C11.2162 15.4179 10.9601 14.9647 10.7225 14.503C10.9595 14.0411 11.2149 13.5878 11.4882 13.1439L11.4882 13.144C11.7614 12.7 12.0525 12.2659 12.3609 11.8426C12.8962 11.8046 13.4452 11.7849 13.9999 11.7849C14.5572 11.7849 15.1069 11.8048 15.6421 11.843C15.9474 12.2657 16.2367 12.6983 16.5094 13.1401C16.7836 13.583 17.0424 14.0341 17.2854 14.4928C17.0449 14.9561 16.7869 15.4113 16.5119 15.8575ZM18.0982 7.81477C18.7009 8.14037 18.9353 9.45335 18.5566 11.1752C18.5324 11.285 18.5053 11.3969 18.4757 11.5104C17.7289 11.3489 16.918 11.2289 16.0689 11.1542C15.5744 10.4945 15.0619 9.89479 14.5474 9.37558C14.6822 9.25384 14.8203 9.13526 14.9614 9.01995C16.2903 7.9368 17.5323 7.50913 18.0982 7.81477ZM14 12.9803C14.8877 12.9803 15.6073 13.6544 15.6073 14.4858C15.6073 15.3172 14.8877 15.9913 14 15.9913C13.1123 15.9913 12.3927 15.3172 12.3927 14.4858C12.3927 13.6544 13.1123 12.9803 14 12.9803Z" fill="#00D8FF"/>
</svg>
