<svg width="36" height="36" viewBox="0 0 36 36" fill="none" xmlns="http://www.w3.org/2000/svg">
<rect width="36" height="35.9714" rx="10" fill="#111315"/>
<path d="M27.666 13.0661C27.3467 12.9513 27.0247 12.8449 26.7004 12.7472C26.7548 12.5138 26.805 12.2833 26.8495 12.0569C27.5805 8.33814 27.1027 5.34226 25.4704 4.35587C23.9053 3.41026 21.3458 4.39628 18.7609 6.7538C18.5061 6.98656 18.257 7.22603 18.0138 7.47198C17.851 7.30843 17.6853 7.14806 17.5168 6.99094C14.8077 4.47021 12.0922 3.4078 10.4617 4.39701C8.89805 5.34558 8.43504 8.16191 9.09316 11.6862C9.15864 12.0353 9.23257 12.3825 9.31488 12.7276C8.93051 12.8421 8.55961 12.9639 8.20465 13.0936C5.0284 14.2541 3 16.0728 3 17.9592C3 19.9075 5.17758 21.8618 8.48578 23.0467C8.75398 23.1424 9.02442 23.2311 9.29684 23.3126C9.20836 23.6843 9.12982 24.0585 9.06129 24.4348C8.43387 27.898 8.92383 30.6478 10.4832 31.5903C12.0939 32.5637 14.7971 31.5633 17.4293 29.152C17.6427 28.9559 17.8515 28.7543 18.0553 28.5474C18.3187 28.8137 18.5891 29.0723 18.8662 29.3228C21.416 31.622 23.9341 32.5504 25.492 31.6053C27.1011 30.6291 27.6241 27.6751 26.9452 24.0811C26.8917 23.7996 26.8317 23.5194 26.7653 23.2409C26.9551 23.1819 27.1414 23.1213 27.3231 23.0582C30.7623 21.8641 33 19.9336 33 17.9592C33 16.0659 30.9061 14.235 27.666 13.0661ZM26.9201 21.7834C26.756 21.8403 26.5877 21.8952 26.4162 21.9486C26.0365 20.689 25.5241 19.3496 24.8971 17.9657C25.4954 16.6148 25.9881 15.2926 26.3571 14.0412C26.664 14.1343 26.9618 14.2324 27.2489 14.3359C30.0251 15.3375 31.7184 16.8182 31.7184 17.9592C31.7184 19.1745 29.8896 20.7522 26.9201 21.7834ZM25.688 24.342C25.9882 25.9311 26.031 27.3679 25.8321 28.4913C25.6535 29.5006 25.2942 30.1735 24.8498 30.443C23.9045 31.0165 21.8827 30.2711 19.7021 28.3047C19.4444 28.0718 19.1928 27.8314 18.9478 27.5838C19.7932 26.615 20.638 25.4888 21.4625 24.2378C22.9129 24.103 24.283 23.8824 25.5255 23.5814C25.5854 23.8336 25.6396 24.0872 25.688 24.342ZM13.2277 30.3439C12.304 30.6857 11.5683 30.6955 11.1236 30.4268C10.1773 29.8549 9.78387 27.647 10.3205 24.6853C10.3843 24.3354 10.4573 23.9873 10.5395 23.6416C11.7683 23.9265 13.1285 24.1314 14.5822 24.2549C15.4124 25.4789 16.2816 26.604 17.1575 27.5891C16.9714 27.7779 16.7808 27.9618 16.586 28.1408C15.422 29.207 14.2556 29.9635 13.2277 30.3439ZM8.90039 21.7759C7.43754 21.2519 6.22945 20.5709 5.40141 19.8278C4.65727 19.1601 4.28168 18.4971 4.28168 17.9592C4.28168 16.8144 5.91023 15.3542 8.62652 14.3618C8.95617 14.2415 9.30117 14.1279 9.65918 14.0213C10.0346 15.3009 10.5271 16.6389 11.1213 17.9919C10.5193 19.3649 10.0199 20.7242 9.64078 22.019C9.39212 21.9443 9.14525 21.8633 8.90039 21.7759ZM10.3509 11.4282C9.78715 8.40875 10.1616 6.13105 11.1039 5.55938C12.1075 4.9505 14.3268 5.81863 16.6659 7.99526C16.8185 8.13752 16.9685 8.28266 17.1161 8.43061C16.2444 9.41147 15.3832 10.5282 14.5604 11.7449C13.1495 11.882 11.7989 12.102 10.5572 12.3969C10.4807 12.0759 10.4119 11.7528 10.3509 11.4282ZM23.2916 14.777C22.9983 14.2461 22.6941 13.7219 22.3793 13.2047C23.3365 13.3316 24.2536 13.5 25.1148 13.7058C24.8563 14.5743 24.534 15.4822 24.1547 16.4131C23.8774 15.8618 23.5897 15.3163 23.2916 14.777ZM18.0144 9.39059C18.6055 10.0617 19.1975 10.811 19.7798 11.624C18.5986 11.5655 17.4154 11.5653 16.2341 11.6232C16.817 10.8177 17.4141 10.0695 18.0144 9.39059ZM12.7034 14.7861C12.409 15.321 12.1266 15.8631 11.8564 16.4118C11.4833 15.4843 11.164 14.5722 10.9032 13.6914C11.7592 13.4908 12.672 13.3267 13.623 13.2022C13.3047 13.7225 12.9981 14.2507 12.7034 14.7861ZM13.6504 22.8118C12.6677 22.6969 11.7413 22.5413 10.8855 22.346C11.1504 21.4495 11.4768 20.518 11.858 19.5706C12.1292 20.1197 12.4128 20.6621 12.7084 21.1973C13.0124 21.7474 13.3271 22.2863 13.6504 22.8118ZM18.0498 26.6225C17.4423 25.9358 16.8364 25.176 16.2448 24.3588C16.8192 24.3824 17.4048 24.3944 18 24.3944C18.6115 24.3944 19.2159 24.38 19.8109 24.3523C19.2267 25.1842 18.6369 25.9451 18.0498 26.6225ZM24.1668 19.5222C24.5678 20.4801 24.9057 21.4066 25.1741 22.2878C24.3043 22.4958 23.3652 22.6633 22.3757 22.7877C22.6927 22.261 22.9998 21.7276 23.2966 21.1881C23.5984 20.6396 23.8885 20.0842 24.1668 19.5222ZM22.1865 20.517C21.7321 21.3443 21.2521 22.1559 20.7473 22.9505C19.833 23.0183 18.9166 23.052 18 23.0515C17.0664 23.0515 16.1583 23.0211 15.2838 22.9616C14.7659 22.1689 14.2767 21.3559 13.8175 20.5244C13.3603 19.6973 12.9335 18.8523 12.5375 17.9913C12.9325 17.13 13.3581 16.2846 13.8137 15.4569L13.8136 15.457C14.269 14.6291 14.7542 13.8196 15.2682 13.0302C16.1604 12.9595 17.0753 12.9226 17.9999 12.9226C18.9287 12.9226 19.8449 12.9599 20.7368 13.0311C21.2456 13.8192 21.7278 14.626 22.1823 15.4498C22.6394 16.2757 23.0707 17.1169 23.4756 17.9722C23.0749 18.8363 22.6449 19.6851 22.1865 20.517ZM24.8303 5.51935C25.8348 6.1265 26.2255 8.57491 25.5943 11.7857C25.554 11.9905 25.5088 12.1992 25.4596 12.4108C24.2148 12.1097 22.8633 11.8858 21.4482 11.7466C20.6239 10.5165 19.7698 9.39808 18.9123 8.42987C19.137 8.20287 19.3671 7.98175 19.6023 7.76672C21.8171 5.74691 23.8871 4.9494 24.8303 5.51935ZM18 15.1518C19.4795 15.1518 20.6789 16.4088 20.6789 17.9592C20.6789 19.5096 19.4795 20.7666 18 20.7666C16.5205 20.7666 15.3211 19.5096 15.3211 17.9592C15.3211 16.4088 16.5205 15.1518 18 15.1518Z" fill="#00D8FF"/>
</svg>
