<svg width="29" height="29" viewBox="0 0 29 29" fill="none" xmlns="http://www.w3.org/2000/svg">
<rect width="29" height="29" rx="14.5" fill="#272D33"/>
<path d="M14.545 14.3633H12.273V13.0907H14.5463V14.364L14.545 14.3633ZM16.8183 6V10H20.8183L16.8183 6ZM17.727 13.0907H15.4536V14.364H17.727V13.0907ZM17.727 15.2727H15.4536V16.546H17.727V15.2727ZM20.8176 10.3333V20.9093C20.8176 21.512 20.3296 22 19.727 22H10.2723C10.1291 22 9.98725 21.9718 9.85493 21.917C9.7226 21.8622 9.60237 21.7818 9.50109 21.6806C9.29655 21.476 9.18164 21.1986 9.18164 20.9093V7.09067C9.18164 6.488 9.66964 6 10.2723 6H16.4843V10.3333H20.8176ZM18.6356 12.182H11.363V17.4547H18.6363V12.1813L18.6356 12.182ZM14.545 15.2727H12.273V16.546H14.5463V15.2727H14.545Z" fill="#296A1E"/>
</svg>
