<svg width="29" height="29" viewBox="0 0 29 29" fill="none" xmlns="http://www.w3.org/2000/svg">
<rect width="29" height="29" rx="14.5" fill="#272D33"/>
<path d="M14.5 9C12.2333 9 10.8171 10.1329 10.25 12.3996C11.0997 11.2666 12.0917 10.8417 13.2247 11.125C13.8717 11.2862 14.334 11.7553 14.846 12.2752C15.6792 13.1208 16.6437 14.0997 18.75 14.0997C21.0166 14.0997 22.4329 12.9667 23 10.6995C22.15 11.8331 21.1584 12.2582 20.0251 11.9747C19.3783 11.8134 18.9165 11.3444 18.4039 10.8246C17.5712 9.97896 16.6069 9 14.5 9ZM10.25 14.0997C7.98342 14.0997 6.56711 15.2328 6 17.5C6.84991 16.3664 7.84149 15.9413 8.97473 16.2247C9.62166 16.3861 10.084 16.8551 10.596 17.3749C11.4292 18.2205 12.3937 19.1995 14.5 19.1995C16.7666 19.1995 18.1829 18.0666 18.75 15.7999C17.9 16.9329 16.9084 17.3578 15.7751 17.0745C15.1283 16.9132 14.6665 16.4441 14.1539 15.9243C13.3212 15.0787 12.3569 14.0997 10.25 14.0997Z" fill="#38BDF8"/>
</svg>
