<svg width="35" height="35" viewBox="0 0 35 35" fill="none" xmlns="http://www.w3.org/2000/svg">
<rect width="35" height="34.9992" rx="10" fill="#111315"/>
<path d="M17.5 10C14.1666 10 12.084 11.666 11.25 14.9994C12.4996 13.3332 13.9584 12.7084 15.6246 13.125C16.576 13.3621 17.2559 14.052 18.0088 14.8164C19.2342 16.06 20.6525 17.4996 23.75 17.4996C27.0832 17.4996 29.166 15.8334 30 12.4992C28.75 14.1663 27.2917 14.7914 25.6252 14.3746C24.674 14.1373 23.9949 13.4477 23.241 12.6832C22.0164 11.4396 20.5984 10 17.5 10ZM11.25 17.4996C7.9168 17.4996 5.83398 19.1658 5 22.5C6.24987 20.8329 7.70807 20.2078 9.37461 20.6246C10.326 20.8619 11.0059 21.5516 11.7588 22.316C12.9842 23.5596 14.4025 24.9992 17.5 24.9992C20.8332 24.9992 22.916 23.3332 23.75 19.9998C22.5 21.6661 21.0417 22.2909 19.3752 21.8742C18.424 21.6371 17.7449 20.9473 16.991 20.1828C15.7664 18.9393 14.3484 17.4996 11.25 17.4996Z" fill="#38BDF8"/>
</svg>
