<svg width="29" height="29" viewBox="0 0 29 29" fill="none" xmlns="http://www.w3.org/2000/svg">
<rect width="29" height="29" rx="14.5" fill="#272D33"/>
<path d="M18.5035 15.961C18.0037 15.961 17.7489 15.5243 17.7489 14.9837C17.7489 14.4431 18.0037 14.0377 18.5035 14.0377C19.0131 14.0377 19.2581 14.4743 19.2581 14.9837C19.2581 15.5347 19.0033 15.961 18.5035 15.961ZM13.6133 14.0377C13.9073 14.0377 14.0249 14.2144 14.0249 14.3703C14.0249 14.755 13.6623 14.9109 12.8979 14.9421C12.9077 14.4743 13.1527 14.0377 13.6133 14.0377ZM10.3695 15.961C9.89914 15.961 9.70314 15.5555 9.70314 14.9837C9.70314 14.4223 9.90894 14.0377 10.3695 14.0377C10.8497 14.0377 11.0751 14.4431 11.0751 14.9837C11.0751 15.5555 10.8399 15.961 10.3695 15.961ZM6.37117 13.4763H5.63618L6.86117 16.46C6.62597 17.011 6.49857 17.1461 6.34177 17.1461C6.17517 17.1461 6.00857 17.0006 5.89098 16.8758L5.56758 17.3333C5.79298 17.5828 6.08697 17.7179 6.40057 17.7179C6.79257 17.7179 7.08657 17.4788 7.25316 17.0526L8.66435 13.4763H7.93916L7.20416 15.6075L6.37117 13.4763ZM25.9318 14.0377C26.2944 14.0377 26.363 14.2976 26.363 14.9109V16.5224H27V14.4847C27 13.757 26.5296 13.4347 26.0886 13.4347C25.6966 13.4347 25.3438 13.6946 25.1478 14.1624C25.04 13.705 24.6774 13.4347 24.256 13.4347C23.8934 13.4347 23.5308 13.6842 23.325 14.1416V13.4763H22.688V16.512H23.325V15.2124C23.325 14.5575 23.6484 14.0273 24.0894 14.0273C24.452 14.0273 24.5206 14.2872 24.5206 14.9005V16.512H25.1576V15.2124C25.1674 14.5575 25.4908 14.0377 25.9318 14.0377ZM20.8163 13.4763H20.5125V16.512H21.1494V15.3476C21.1494 14.6094 21.4532 14.1104 21.9138 14.1104C22.0314 14.1104 22.1294 14.1104 22.2372 14.1624L22.3352 13.4451C22.2568 13.4347 22.1784 13.4243 22.1098 13.4243C21.659 13.4243 21.3356 13.7466 21.1494 14.1728V13.4659L20.8163 13.4763ZM18.5035 13.4347C17.6607 13.4347 17.0825 14.1208 17.0825 14.9837C17.0825 15.8778 17.6607 16.5535 18.5035 16.5535C19.3561 16.5535 19.9343 15.8674 19.9343 14.9837C19.9343 14.1104 19.3463 13.4347 18.5035 13.4347ZM13.6525 15.961C13.3193 15.961 13.0743 15.7842 12.9665 15.4204C13.8093 15.3788 14.6423 15.1604 14.6423 14.3703C14.6423 13.9129 14.2209 13.4451 13.6133 13.4451C12.7901 13.4451 12.2413 14.152 12.2413 14.9941C12.2413 15.8674 12.7901 16.5639 13.6035 16.5639C14.1719 16.5639 14.5345 16.3248 14.8187 15.9714L14.5051 15.5243C14.1719 15.8674 13.9661 15.961 13.6525 15.961ZM10.4969 13.4347C10.1735 13.4347 9.85014 13.6322 9.72274 13.9441V13.4763H9.08575V17.6971H9.72274V16.1897C9.85994 16.408 10.1637 16.5535 10.4479 16.5535C11.3005 16.5535 11.7513 15.8882 11.7513 14.9837C11.7415 14.0896 11.3005 13.4347 10.4969 13.4347ZM6.01837 12.2703H3V12.9253H4.17599V16.512H4.84238V12.9253H6.00857L6.01837 12.2703ZM15.5243 13.4763H15.1421V14.0792H15.5243V16.5016H16.1613V14.0896H16.7787V13.4867H16.1613V13.0084C16.1613 12.7069 16.2789 12.603 16.5435 12.603C16.6415 12.603 16.7297 12.6342 16.8571 12.6758L17.0041 12.104C16.8865 12.0312 16.6513 12 16.5043 12C15.8967 12 15.5341 12.3847 15.5341 13.0604L15.5243 13.4763Z" fill="white"/>
</svg>
